<?xml version="1.0" encoding="UTF-8"?>
<!DOCTYPE svg PUBLIC "-//W3C//DTD SVG 1.1//EN" "http://www.w3.org/Graphics/SVG/1.1/DTD/svg11.dtd">
<!-- Creator: CorelDRAW 2018 (64-Bit) -->
<svg xmlns="http://www.w3.org/2000/svg" xml:space="preserve" version="1.1" style="shape-rendering:geometricPrecision; text-rendering:geometricPrecision; image-rendering:optimizeQuality; fill-rule:evenodd; clip-rule:evenodd"
viewBox="0 0 6500 812.5"
 xmlns:xlink="http://www.w3.org/1999/xlink">
 <defs>
  <style type="text/css">
   <![CDATA[
    .fil2 {fill:#FFFFFF}
    .fil1 {fill:#FFFFFF;fill-rule:nonzero}
    .fil0 {fill:#FFD700;fill-rule:nonzero}
   ]]>
  </style>
 </defs>
 <g id="Layer_x0020_1">
  <metadata id="CorelCorpID_0Corel-Layer"/>
  <g id="_2955788353136">
   <g id="_283828312">
    <g>
     <path id="_283849336" class="fil0" d="M723.05 45.94l-11.81 0 0 -0.35 0.03 -0.36 0.04 -0.31 0.06 -0.34 0.06 -0.33 0.08 -0.31 0.09 -0.33 0.11 -0.3 0.11 -0.31 0.14 -0.28 0.14 -0.28 0.16 -0.27 0.15 -0.28 0.19 -0.25 0.17 -0.25 0.21 -0.23 0.2 -0.22 0.22 -0.21 0.22 -0.21 0.23 -0.18 0.24 -0.18 0.25 -0.16 0.25 -0.16 0.26 -0.12 0.27 -0.13 0.28 -0.11 0.28 -0.09 0.28 -0.08 0.3 -0.06 0.28 -0.03 0.31 -0.05 0.3 0 0.29 0 0.32 0.05 0.28 0.03 0.29 0.06 0.29 0.08 0.28 0.09 0.28 0.11 0.26 0.13 0.27 0.12 0.25 0.16 0.25 0.16 0.23 0.18 0.24 0.18 0.22 0.21 0.21 0.21 0.21 0.22 0.2 0.23 0.17 0.25 0.19 0.25 0.16 0.28 0.15 0.27 0.14 0.28 0.14 0.28 0.11 0.31 0.11 0.3 0.1 0.33 0.07 0.31 0.07 0.33 0.06 0.34 0.03 0.31 0.03 0.36 0 0.35zm-11.81 720.62l0 -720.64 11.81 0 0 720.64 -11.81 0zm0 0l11.81 0 0 0.35 -0.03 0.34 -0.03 0.33 -0.06 0.34 -0.07 0.32 -0.07 0.32 -0.1 0.33 -0.11 0.3 -0.11 0.31 -0.14 0.28 -0.14 0.28 -0.15 0.27 -0.16 0.28 -0.19 0.25 -0.17 0.25 -0.2 0.22 -0.21 0.23 -0.21 0.21 -0.22 0.21 -0.24 0.18 -0.23 0.18 -0.25 0.16 -0.25 0.16 -0.27 0.12 -0.26 0.13 -0.28 0.11 -0.28 0.09 -0.29 0.06 -0.29 0.08 -0.28 0.03 -0.32 0.05 -0.29 0 -0.3 0 -0.31 -0.05 -0.28 -0.03 -0.3 -0.08 -0.28 -0.06 -0.28 -0.09 -0.28 -0.11 -0.27 -0.13 -0.26 -0.12 -0.25 -0.16 -0.25 -0.16 -0.24 -0.18 -0.23 -0.18 -0.22 -0.21 -0.22 -0.21 -0.2 -0.23 -0.21 -0.22 -0.17 -0.25 -0.19 -0.25 -0.15 -0.28 -0.16 -0.27 -0.14 -0.28 -0.14 -0.28 -0.11 -0.31 -0.11 -0.3 -0.09 -0.33 -0.08 -0.32 -0.06 -0.32 -0.06 -0.34 -0.04 -0.33 -0.03 -0.34 0 -0.35z"/>
    </g>
    <g>
     <path id="_283848976" class="fil0" d="M792.45 45.94l-11.81 0 0 -0.35 0.04 -0.36 0.03 -0.31 0.06 -0.34 0.06 -0.33 0.08 -0.31 0.09 -0.33 0.11 -0.3 0.11 -0.31 0.14 -0.28 0.14 -0.28 0.16 -0.27 0.16 -0.28 0.18 -0.25 0.17 -0.25 0.21 -0.23 0.2 -0.22 0.22 -0.21 0.22 -0.21 0.23 -0.18 0.24 -0.18 0.25 -0.16 0.25 -0.16 0.26 -0.12 0.27 -0.13 0.28 -0.11 0.28 -0.09 0.28 -0.08 0.3 -0.06 0.28 -0.03 0.31 -0.05 0.3 0 0.3 0 0.31 0.05 0.28 0.03 0.3 0.06 0.28 0.08 0.28 0.09 0.28 0.11 0.26 0.13 0.27 0.12 0.25 0.16 0.25 0.16 0.23 0.18 0.24 0.18 0.22 0.21 0.22 0.21 0.2 0.22 0.2 0.23 0.17 0.25 0.19 0.25 0.16 0.28 0.15 0.27 0.14 0.28 0.14 0.28 0.11 0.31 0.11 0.3 0.1 0.33 0.08 0.31 0.06 0.33 0.06 0.34 0.03 0.31 0.03 0.36 0 0.35zm-11.81 720.62l0 -720.64 11.81 0 0 720.64 -11.81 0zm0 0l11.81 0 0 0.35 -0.03 0.34 -0.03 0.33 -0.06 0.34 -0.06 0.32 -0.08 0.32 -0.1 0.33 -0.11 0.3 -0.11 0.31 -0.14 0.28 -0.14 0.28 -0.15 0.27 -0.16 0.28 -0.19 0.25 -0.17 0.25 -0.2 0.22 -0.2 0.23 -0.22 0.21 -0.22 0.21 -0.24 0.18 -0.23 0.18 -0.25 0.16 -0.25 0.16 -0.27 0.12 -0.26 0.13 -0.28 0.11 -0.28 0.09 -0.28 0.06 -0.3 0.08 -0.28 0.03 -0.31 0.05 -0.3 0 -0.3 0 -0.31 -0.05 -0.28 -0.03 -0.3 -0.08 -0.28 -0.06 -0.28 -0.09 -0.28 -0.11 -0.27 -0.13 -0.26 -0.12 -0.25 -0.16 -0.25 -0.16 -0.24 -0.18 -0.23 -0.18 -0.22 -0.21 -0.22 -0.21 -0.2 -0.23 -0.21 -0.22 -0.17 -0.25 -0.18 -0.25 -0.16 -0.28 -0.16 -0.27 -0.14 -0.28 -0.14 -0.28 -0.11 -0.31 -0.11 -0.3 -0.09 -0.33 -0.08 -0.32 -0.06 -0.32 -0.06 -0.34 -0.03 -0.33 -0.04 -0.34 0 -0.35z"/>
    </g>
   </g>
   <path id="_862662176" class="fil1" d="M1216.44 468.65c0,27.79 -9.69,50.55 -29.03,68.26 -19.35,17.17 -43.2,25.76 -71.54,25.76 -6.54,0 -14.31,-0.69 -23.3,-2.04 -9,-1.36 -19.36,-3.41 -31.07,-6.13 -22.35,-6 -39.93,-8.99 -52.74,-8.99 -20.99,0 -32.42,6.54 -34.33,19.61 -9.83,-8.99 -14.73,-20.43 -14.73,-34.33 0,-13.09 5.59,-23.57 16.76,-31.47 10.09,-7.38 21.95,-11.05 35.57,-11.05 13.35,0 27.66,4.91 42.92,14.72l38.02 26.97c14.17,9.81 26.98,14.73 38.43,14.73 9.26,0 18.26,-3.68 26.99,-11.04 8.72,-7.36 13.08,-15.67 13.08,-24.95 0,-24.79 -17.58,-42.09 -52.74,-51.9 -10.9,-3 -24.52,-6.61 -40.88,-10.84 -16.35,-4.22 -35.57,-9.2 -57.64,-14.92 -35.7,-15.26 -53.56,-40.33 -53.56,-75.21 0,-21.54 6.69,-40.21 20.04,-56.02 18.53,-22.62 46.19,-33.92 82.98,-33.92 6,0 13.35,0.4 22.08,1.21 8.72,0.83 19.22,1.93 31.48,3.28 12.26,1.36 22.82,2.46 31.68,3.27 8.85,0.81 16.29,1.23 22.27,1.23 0.55,0 2.88,-0.34 6.95,-1.03 4.1,-0.67 9.69,-1.7 16.76,-3.06 0.28,1.91 0.49,3.61 0.63,5.11 0.12,1.5 0.2,2.79 0.2,3.89 0,16.07 -6.68,29.83 -20.04,41.28 -13.62,11.17 -28.48,16.76 -44.55,16.76 -16.35,0 -28.35,-6.54 -35.97,-19.62 3.81,-3.81 5.71,-7.63 5.71,-11.45 0,-7.9 -4.09,-14.16 -12.26,-18.8 -7.09,-3.81 -14.85,-5.72 -23.3,-5.72 -35.98,0 -53.96,12.4 -53.96,37.19 0,18 17.17,31.07 51.5,39.26 55.6,13.07 87.49,21.8 95.66,26.16 34.62,16.62 51.93,44.55 51.93,83.8z"/>
   <path id="_8626621761" class="fil1" d="M1568.39 557.77l-103.01 0c7.9,-6.27 11.31,-14.86 10.23,-25.76l-22.09 -214.62 -65.4 240.38 -30.66 0 -69.09 -236.29 -11.86 203.17c-0.81,12.26 5.19,23.31 18,33.12l-58.47 0c12.28,-9.27 18.81,-20.31 19.63,-33.12l16.34 -227.29c0.83,-9.81 -3.4,-18.4 -12.66,-25.76l90.75 0 50.28 166.8 47.83 -166.8 88.3 0c-9.54,7.91 -13.76,16.5 -12.67,25.76l29.43 234.65c1.36,10.36 6.41,18.95 15.12,25.76z"/>
   <path id="_86266217612" class="fil1" d="M1836.16 341.08c0,16.09 -7.62,38.71 -22.89,67.87 -6.28,10.91 -12.48,21.67 -18.6,32.29 -6.14,10.64 -12.34,21.4 -18.6,32.3 -14.17,24.79 -21.26,45.5 -21.26,62.14 0,8.72 3.81,16.07 11.45,22.07l-103.02 0c7.08,-5.72 10.62,-12.26 10.62,-19.62 0,-1.9 -0.4,-3.95 -1.22,-6.14l-86.25 -234.65c-4.64,-11.71 -9.95,-20.3 -15.95,-25.75l103.42 0c-6.53,5.45 -9.81,11.85 -9.81,19.21 0,2.45 0.41,4.64 1.24,6.54l74.8 206.44c1.36,-5.45 3.95,-13.76 7.77,-24.93 3.81,-11.17 9.13,-25.21 15.94,-42.11 9.81,-24.79 14.72,-48.23 14.72,-70.31 0,-16.35 -3.81,-30.8 -11.45,-43.33 -9.53,-14.71 -21.81,-22.07 -36.79,-22.07 -7.35,0 -12.66,0.81 -15.95,2.45 10.64,-27.25 28.62,-40.87 53.97,-40.87 19.62,0 36.12,8.31 49.46,24.93 12.27,15.52 18.4,33.38 18.4,53.54z"/>
   <path id="_862662176123" class="fil1" d="M2106.8 468.65c0,27.79 -9.69,50.55 -29.03,68.26 -19.35,17.17 -43.2,25.76 -71.54,25.76 -6.54,0 -14.31,-0.69 -23.3,-2.04 -9,-1.36 -19.36,-3.41 -31.07,-6.13 -22.35,-6 -39.93,-8.99 -52.74,-8.99 -20.99,0 -32.42,6.54 -34.33,19.61 -9.83,-8.99 -14.73,-20.43 -14.73,-34.33 0,-13.09 5.59,-23.57 16.76,-31.47 10.09,-7.38 21.95,-11.05 35.57,-11.05 13.35,0 27.66,4.91 42.92,14.72l38.02 26.97c14.17,9.81 26.98,14.73 38.43,14.73 9.26,0 18.26,-3.68 26.99,-11.04 8.72,-7.36 13.08,-15.67 13.08,-24.95 0,-24.79 -17.58,-42.09 -52.74,-51.9 -10.9,-3 -24.52,-6.61 -40.88,-10.84 -16.35,-4.22 -35.57,-9.2 -57.64,-14.92 -35.7,-15.26 -53.56,-40.33 -53.56,-75.21 0,-21.54 6.69,-40.21 20.04,-56.02 18.53,-22.62 46.19,-33.92 82.98,-33.92 6,0 13.35,0.4 22.08,1.21 8.72,0.83 19.22,1.93 31.48,3.28 12.26,1.36 22.82,2.46 31.68,3.27 8.85,0.81 16.29,1.23 22.27,1.23 0.55,0 2.88,-0.34 6.95,-1.03 4.1,-0.67 9.69,-1.7 16.76,-3.06 0.28,1.91 0.49,3.61 0.63,5.11 0.12,1.5 0.2,2.79 0.2,3.89 0,16.07 -6.68,29.83 -20.04,41.28 -13.62,11.17 -28.48,16.76 -44.55,16.76 -16.35,0 -28.35,-6.54 -35.97,-19.62 3.81,-3.81 5.71,-7.63 5.71,-11.45 0,-7.9 -4.09,-14.16 -12.26,-18.8 -7.09,-3.81 -14.85,-5.72 -23.3,-5.72 -35.98,0 -53.96,12.4 -53.96,37.19 0,18 17.17,31.07 51.5,39.26 55.6,13.07 87.49,21.8 95.66,26.16 34.62,16.62 51.93,44.55 51.93,83.8z"/>
   <path id="_862662128" class="fil0" d="M2464.47 475.53c0,24.57 -8.93,43.73 -26.73,57.48 -17.85,13.76 -42.03,20.66 -72.61,20.66 -33.04,0 -58.53,-4.29 -76.33,-12.84l0 -31.28c11.41,4.82 23.92,8.67 37.42,11.48 13.49,2.79 26.85,4.17 40.09,4.17 21.64,0 37.93,-4.11 48.88,-12.33 10.95,-8.21 16.43,-19.61 16.43,-34.28 0,-9.66 -1.95,-17.61 -5.81,-23.79 -3.9,-6.13 -10.42,-11.87 -19.48,-17.09 -9.12,-5.2 -22.94,-11.14 -41.52,-17.73 -26.02,-9.31 -44.59,-20.34 -55.67,-33.04 -11.15,-12.71 -16.76,-29.33 -16.76,-49.87 0,-21.51 8.09,-38.58 24.26,-51.36 16.17,-12.72 37.54,-19.11 64.2,-19.11 27.71,0 53.25,5.1 76.52,15.33l-10.1 28.22c-23.01,-9.65 -45.43,-14.48 -67.2,-14.48 -17.22,0 -30.63,3.66 -40.29,11.03 -9.71,7.42 -14.52,17.67 -14.52,30.76 0,9.71 1.75,17.6 5.34,23.8 3.58,6.19 9.57,11.86 18.06,17.01 8.46,5.14 21.44,10.81 38.84,17.08 29.26,10.43 49.47,21.63 60.42,33.57 11.02,11.99 16.56,27.5 16.56,46.61z"/>
   <path id="_8626621281" class="fil0" d="M2687.73 549.83l-38.39 -122.8c-2.41,-7.5 -6.98,-24.58 -13.56,-51.18l-1.56 0c-5.1,22.29 -9.52,39.51 -13.37,51.57l-39.49 122.41 -36.71 0 -57.09 -209.31 33.24 0c13.49,52.61 23.79,92.63 30.83,120.14 7.11,27.5 11.14,46.01 12.12,55.54l1.57 0c1.37,-7.23 3.65,-16.62 6.78,-28.16 3.12,-11.55 5.79,-20.67 8.07,-27.38l38.4 -120.14 34.42 0 37.41 120.14c7.11,21.9 11.94,40.28 14.47,55.21l1.58 0c0.51,-4.62 1.89,-11.66 4.09,-21.26 2.22,-9.51 15.52,-60.87 39.83,-154.09l32.85 0 -57.87 209.31 -37.62 0z"/>
   <path id="_86266212812" class="fil0" d="M2949.7 549.83l-6.26 -29.79 -1.56 0c-10.44,13.11 -20.86,21.97 -31.23,26.67 -10.36,4.62 -23.34,6.96 -38.85,6.96 -20.73,0 -37.02,-5.34 -48.83,-16.1 -11.73,-10.68 -17.65,-25.87 -17.65,-45.63 0,-42.23 33.82,-64.4 101.43,-66.41l35.52 -1.18 0 -12.96c0,-16.43 -3.52,-28.55 -10.63,-36.38 -7.04,-7.83 -18.32,-11.73 -33.89,-11.73 -17.4,0 -37.16,5.34 -59.19,16.02l-9.71 -24.24c10.29,-5.61 21.57,-10.04 33.89,-13.17 12.26,-3.18 24.57,-4.82 36.96,-4.82 24.9,0 43.41,5.54 55.47,16.62 11.99,11.09 18.06,28.88 18.06,53.33l0 142.81 -23.53 0zm-71.57 -22.35c19.68,0 35.19,-5.42 46.47,-16.23 11.28,-10.82 16.89,-25.95 16.89,-45.44l0 -18.9 -31.68 1.3c-25.23,0.92 -43.41,4.82 -54.5,11.81 -11.14,6.9 -16.75,17.72 -16.75,32.31 0,11.48 3.45,20.22 10.42,26.21 6.92,5.94 16.64,8.94 29.15,8.94z"/>
   <path id="_862662128123" class="fil0" d="M3305.28 549.83l0 -136.16c0,-16.7 -3.51,-29.21 -10.68,-37.55 -7.11,-8.28 -18.18,-12.45 -33.18,-12.45 -19.76,0 -34.35,5.61 -43.74,16.95 -9.45,11.34 -14.15,28.8 -14.15,52.34l0 116.87 -31.68 0 0 -136.16c0,-16.7 -3.57,-29.21 -10.74,-37.55 -7.11,-8.28 -18.26,-12.45 -33.38,-12.45 -19.89,0 -34.42,5.93 -43.68,17.79 -9.18,11.93 -13.82,31.43 -13.82,58.53l0 109.84 -31.68 0 0 -209.31 25.76 0 5.14 28.69 1.56 0c5.93,-10.24 14.42,-18.19 25.3,-23.93 10.88,-5.73 23.08,-8.6 36.57,-8.6 32.71,0 54.09,11.87 64.14,35.53l1.56 0c6.19,-10.95 15.25,-19.55 27.12,-25.94 11.79,-6.39 25.29,-9.59 40.47,-9.59 23.66,0 41.39,6.14 53.2,18.26 11.73,12.18 17.65,31.61 17.65,58.34l0 136.55 -31.74 0z"/>
   <path id="_8626621281234" class="fil0" d="M3434.03 549.83l-31.68 0 0 -209.31 31.68 0 0 209.31zm-34.35 -266.01c0,-7.23 1.76,-12.58 5.34,-15.97 3.53,-3.32 8.03,-5.03 13.37,-5.03 5.08,0 9.45,1.71 13.17,5.16 3.72,3.45 5.53,8.73 5.53,15.84 0,7.1 -1.81,12.45 -5.53,15.96 -3.72,3.47 -8.09,5.22 -13.17,5.22 -5.34,0 -9.84,-1.75 -13.37,-5.22 -3.58,-3.51 -5.34,-8.86 -5.34,-15.96z"/>
   <path id="_86266212812345" class="fil0" d="M3644.51 549.83l0 -135.38c0,-17.09 -3.9,-29.79 -11.67,-38.21 -7.75,-8.4 -19.87,-12.57 -36.42,-12.57 -21.9,0 -37.95,5.86 -48.18,17.73 -10.17,11.85 -15.26,31.35 -15.26,58.59l0 109.84 -31.68 0 0 -209.31 25.76 0 5.14 28.69 1.56 0c6.47,-10.37 15.59,-18.32 27.32,-23.99 11.67,-5.67 24.78,-8.54 39.12,-8.54 25.22,0 44.19,6.14 56.9,18.26 12.78,12.18 19.09,31.61 19.09,58.34l0 136.55 -31.68 0z"/>
   <path id="_862662128123456" class="fil0" d="M3870.05 549.83l-6.26 -29.79 -1.56 0c-10.44,13.11 -20.86,21.97 -31.23,26.67 -10.35,4.62 -23.34,6.96 -38.85,6.96 -20.72,0 -37.02,-5.34 -48.83,-16.1 -11.73,-10.68 -17.65,-25.87 -17.65,-45.63 0,-42.23 33.82,-64.4 101.43,-66.41l35.52 -1.18 0 -12.96c0,-16.43 -3.52,-28.55 -10.62,-36.38 -7.05,-7.83 -18.33,-11.73 -33.9,-11.73 -17.4,0 -37.16,5.34 -59.19,16.02l-9.71 -24.24c10.29,-5.61 21.57,-10.04 33.89,-13.17 12.27,-3.18 24.57,-4.82 36.96,-4.82 24.9,0 43.41,5.54 55.47,16.62 12,11.09 18.06,28.88 18.06,53.33l0 142.81 -23.53 0zm-71.57 -22.35c19.68,0 35.19,-5.42 46.47,-16.23 11.28,-10.82 16.89,-25.95 16.89,-45.44l0 -18.9 -31.68 1.3c-25.23,0.92 -43.41,4.82 -54.5,11.81 -11.14,6.9 -16.75,17.72 -16.75,32.31 0,11.48 3.46,20.22 10.42,26.21 6.92,5.94 16.64,8.94 29.15,8.94z"/>
   <path id="_8626621281234567" class="fil0" d="M4054.33 336.66c9.31,0 17.65,0.78 25.02,2.36l-4.37 29.4c-8.67,-1.97 -16.3,-2.88 -22.95,-2.88 -16.87,0 -31.41,6.85 -43.41,20.61 -12.06,13.74 -18.06,30.89 -18.06,51.36l0 112.31 -31.67 0 0 -209.32 26.14 0 3.64 38.79 1.5 0c7.77,-13.62 17.15,-24.12 28.1,-31.54 10.95,-7.37 22.95,-11.09 36.06,-11.09z"/>
   <path id="_86266212812345678" class="fil0" d="M4239.38 549.83l-6.26 -29.79 -1.57 0c-10.43,13.11 -20.85,21.97 -31.22,26.67 -10.36,4.62 -23.34,6.96 -38.85,6.96 -20.73,0 -37.02,-5.34 -48.83,-16.1 -11.73,-10.68 -17.65,-25.87 -17.65,-45.63 0,-42.23 33.82,-64.4 101.42,-66.41l35.52 -1.18 0 -12.96c0,-16.43 -3.51,-28.55 -10.62,-36.38 -7.04,-7.83 -18.32,-11.73 -33.89,-11.73 -17.4,0 -37.16,5.34 -59.19,16.02l-9.71 -24.24c10.29,-5.61 21.57,-10.04 33.89,-13.17 12.26,-3.18 24.57,-4.82 36.96,-4.82 24.9,0 43.41,5.54 55.47,16.62 11.99,11.09 18.05,28.88 18.05,53.33l0 142.81 -23.52 0zm-71.57 -22.35c19.68,0 35.19,-5.42 46.47,-16.23 11.28,-10.82 16.88,-25.95 16.88,-45.44l0 -18.9 -31.67 1.3c-25.23,0.92 -43.41,4.82 -54.5,11.81 -11.14,6.9 -16.75,17.72 -16.75,32.31 0,11.48 3.45,20.22 10.42,26.21 6.92,5.94 16.64,8.94 29.15,8.94z"/>
   <path id="_862662128123456789" class="fil0" d="M4294.97 340.5l33.96 0 45.83 119.36c10.11,27.26 16.29,46.94 18.78,59l1.5 0c1.62,-6.45 5.14,-17.61 10.42,-33.32 5.28,-15.7 22.55,-64.08 51.82,-145.04l34.03 0 -89.96 238.32c-8.92,23.61 -19.36,40.29 -31.21,50.13 -11.94,9.9 -26.54,14.79 -43.88,14.79 -9.65,0 -19.23,-1.03 -28.62,-3.18l0 -25.43c6.99,1.49 14.8,2.28 23.47,2.28 21.77,0 37.28,-12.19 46.61,-36.63l11.67 -29.79 -84.42 -210.49z"/>
   <path id="_86266212812345678910" class="fil0" d="M4653.94 549.83l-6.26 -29.79 -1.56 0c-10.44,13.11 -20.85,21.97 -31.23,26.67 -10.35,4.62 -23.33,6.96 -38.84,6.96 -20.73,0 -37.02,-5.34 -48.83,-16.1 -11.73,-10.68 -17.65,-25.87 -17.65,-45.63 0,-42.23 33.81,-64.4 101.42,-66.41l35.52 -1.18 0 -12.96c0,-16.43 -3.52,-28.55 -10.62,-36.38 -7.05,-7.83 -18.33,-11.73 -33.9,-11.73 -17.4,0 -37.16,5.34 -59.18,16.02l-9.72 -24.24c10.29,-5.61 21.57,-10.04 33.9,-13.17 12.26,-3.18 24.57,-4.82 36.95,-4.82 24.9,0 43.41,5.54 55.47,16.62 12,11.09 18.06,28.88 18.06,53.33l0 142.81 -23.53 0zm-71.57 -22.35c19.68,0 35.19,-5.42 46.47,-16.23 11.28,-10.82 16.89,-25.95 16.89,-45.44l0 -18.9 -31.68 1.3c-25.23,0.92 -43.41,4.82 -54.5,11.81 -11.14,6.9 -16.74,17.72 -16.74,32.31 0,11.48 3.45,20.22 10.41,26.21 6.92,5.94 16.64,8.94 29.15,8.94z"/>
   <path id="_8626621281234567891011" class="fil0" d="M4885.98 549.83l0 -135.38c0,-17.09 -3.9,-29.79 -11.66,-38.21 -7.75,-8.4 -19.87,-12.57 -36.43,-12.57 -21.9,0 -37.94,5.86 -48.17,17.73 -10.17,11.85 -15.26,31.35 -15.26,58.59l0 109.84 -31.68 0 0 -209.31 25.76 0 5.13 28.69 1.57 0c6.46,-10.37 15.59,-18.32 27.32,-23.99 11.66,-5.67 24.77,-8.54 39.11,-8.54 25.23,0 44.19,6.14 56.9,18.26 12.78,12.18 19.09,31.61 19.09,58.34l0 136.55 -31.68 0z"/>
   <path id="_862662128123456789101112" class="fil0" d="M5246.78 475.53c0,24.57 -8.93,43.73 -26.72,57.48 -17.86,13.76 -42.04,20.66 -72.62,20.66 -33.04,0 -58.53,-4.29 -76.32,-12.84l0 -31.28c11.4,4.82 23.91,8.67 37.41,11.48 13.49,2.79 26.85,4.17 40.1,4.17 21.63,0 37.92,-4.11 48.87,-12.33 10.95,-8.21 16.43,-19.61 16.43,-34.28 0,-9.66 -1.95,-17.61 -5.81,-23.79 -3.9,-6.13 -10.42,-11.87 -19.48,-17.09 -9.12,-5.2 -22.94,-11.14 -41.51,-17.73 -26.03,-9.31 -44.6,-20.34 -55.68,-33.04 -11.15,-12.71 -16.76,-29.33 -16.76,-49.87 0,-21.51 8.1,-38.58 24.26,-51.36 16.17,-12.72 37.54,-19.11 64.2,-19.11 27.71,0 53.25,5.1 76.53,15.33l-10.11 28.22c-23.01,-9.65 -45.42,-14.48 -67.2,-14.48 -17.21,0 -30.63,3.66 -40.28,11.03 -9.72,7.42 -14.53,17.67 -14.53,30.76 0,9.71 1.75,17.6 5.34,23.8 3.58,6.19 9.58,11.86 18.06,17.01 8.46,5.14 21.45,10.81 38.85,17.08 29.25,10.43 49.47,21.63 60.42,33.57 11.01,11.99 16.55,27.5 16.55,46.61z"/>
   <path id="_86266212812345678910111213" class="fil0" d="M5427.81 549.83l-6.27 -29.79 -1.56 0c-10.43,13.11 -20.85,21.97 -31.22,26.67 -10.36,4.62 -23.34,6.96 -38.85,6.96 -20.73,0 -37.02,-5.34 -48.83,-16.1 -11.73,-10.68 -17.65,-25.87 -17.65,-45.63 0,-42.23 33.82,-64.4 101.42,-66.41l35.52 -1.18 0 -12.96c0,-16.43 -3.51,-28.55 -10.62,-36.38 -7.04,-7.83 -18.32,-11.73 -33.9,-11.73 -17.4,0 -37.16,5.34 -59.18,16.02l-9.72 -24.24c10.3,-5.61 21.57,-10.04 33.9,-13.17 12.26,-3.18 24.57,-4.82 36.96,-4.82 24.9,0 43.41,5.54 55.46,16.62 12,11.09 18.06,28.88 18.06,53.33l0 142.81 -23.52 0zm-71.57 -22.35c19.68,0 35.19,-5.42 46.47,-16.23 11.27,-10.82 16.88,-25.95 16.88,-45.44l0 -18.9 -31.68 1.3c-25.22,0.92 -43.41,4.82 -54.5,11.81 -11.13,6.9 -16.74,17.72 -16.74,32.31 0,11.48 3.45,20.22 10.42,26.21 6.92,5.94 16.63,8.94 29.15,8.94z"/>
   <path id="_8626621281234567891011121314" class="fil0" d="M5659.85 549.83l0 -135.38c0,-17.09 -3.91,-29.79 -11.67,-38.21 -7.75,-8.4 -19.87,-12.57 -36.43,-12.57 -21.9,0 -37.94,5.86 -48.17,17.73 -10.17,11.85 -15.26,31.35 -15.26,58.59l0 109.84 -31.68 0 0 -209.31 25.76 0 5.14 28.69 1.56 0c6.47,-10.37 15.59,-18.32 27.32,-23.99 11.67,-5.67 24.77,-8.54 39.11,-8.54 25.23,0 44.19,6.14 56.91,18.26 12.78,12.18 19.09,31.61 19.09,58.34l0 136.55 -31.68 0z"/>
   <path id="_862662128123456789101112131415" class="fil0" d="M5891.72 492.72c0,19.5 -7.25,34.49 -21.78,45.05 -14.54,10.63 -34.88,15.9 -61.15,15.9 -27.7,0 -49.33,-4.43 -64.92,-13.23l0 -29.39c10.11,5.09 20.87,9.12 32.4,12.06 11.54,2.93 22.61,4.37 33.31,4.37 16.56,0 29.26,-2.61 38.2,-7.89 8.93,-5.28 13.35,-13.37 13.35,-24.18 0,-8.15 -3.51,-15.14 -10.56,-20.93 -7.09,-5.8 -20.85,-12.65 -41.38,-20.53 -19.49,-7.24 -33.31,-13.55 -41.53,-18.97 -8.2,-5.41 -14.34,-11.53 -18.31,-18.45 -4.04,-6.84 -6,-15.06 -6,-24.64 0,-17.08 6.91,-30.5 20.79,-40.34 13.89,-9.92 32.92,-14.87 57.11,-14.87 22.54,0 44.52,4.64 66.09,13.76l-11.28 25.8c-21.05,-8.67 -40.08,-12.96 -57.1,-12.96 -15.05,0 -26.4,2.34 -34.02,7.04 -7.63,4.69 -11.47,11.2 -11.47,19.48 0,5.61 1.44,10.37 4.3,14.34 2.87,3.92 7.49,7.7 13.88,11.22 6.33,3.59 18.58,8.73 36.63,15.51 24.84,8.99 41.6,18.12 50.33,27.32 8.73,9.12 13.11,20.66 13.11,34.53z"/>
   <path id="_86266212812345678910111213141516" class="fil0" d="M6010.87 527.48c5.61,0 11.01,-0.39 16.23,-1.25 5.22,-0.84 9.31,-1.69 12.38,-2.53l0 24.24c-3.46,1.63 -8.48,3 -15.19,4.11 -6.64,1.05 -12.7,1.62 -18.06,1.62 -40.47,0 -60.69,-21.38 -60.69,-64.01l0 -124.49 -29.97 0 0 -15.26 29.97 -13.23 13.38 -44.65 18.3 0 0 48.49 60.77 0 0 24.65 -60.77 0 0 123.2c0,12.57 3,22.22 9,29 6,6.72 14.21,10.11 24.65,10.11z"/>
   <path id="_8626621281234567891011121314151617" class="fil0" d="M6224.52 549.83l0 -135.38c0,-17.09 -3.9,-29.79 -11.66,-38.21 -7.75,-8.4 -19.87,-12.57 -36.43,-12.57 -22.04,0 -38.15,5.93 -48.24,17.92 -10.1,11.99 -15.2,31.55 -15.2,58.81l0 109.43 -31.67 0 0 -297.17 31.67 0 0 89.95c0,10.83 -0.51,19.82 -1.5,26.92l1.89 0c6.27,-10.03 15.14,-17.98 26.67,-23.72 11.48,-5.81 24.65,-8.74 39.38,-8.74 25.61,0 44.84,6.14 57.62,18.26 12.76,12.18 19.15,31.47 19.15,57.95l0 136.55 -31.68 0z"/>
   <path id="_862662128123456789101112131415161718" class="fil0" d="M6450.07 549.83l-6.27 -29.79 -1.56 0c-10.43,13.11 -20.85,21.97 -31.23,26.67 -10.35,4.62 -23.33,6.96 -38.84,6.96 -20.73,0 -37.02,-5.34 -48.83,-16.1 -11.73,-10.68 -17.65,-25.87 -17.65,-45.63 0,-42.23 33.81,-64.4 101.42,-66.41l35.52 -1.18 0 -12.96c0,-16.43 -3.51,-28.55 -10.62,-36.38 -7.05,-7.83 -18.32,-11.73 -33.9,-11.73 -17.4,0 -37.16,5.34 -59.18,16.02l-9.72 -24.24c10.29,-5.61 21.57,-10.04 33.9,-13.17 12.26,-3.18 24.57,-4.82 36.96,-4.82 24.89,0 43.4,5.54 55.46,16.62 12,11.09 18.06,28.88 18.06,53.33l0 142.81 -23.52 0zm-71.58 -22.35c19.69,0 35.2,-5.42 46.47,-16.23 11.28,-10.82 16.89,-25.95 16.89,-45.44l0 -18.9 -31.68 1.3c-25.23,0.92 -43.41,4.82 -54.5,11.81 -11.14,6.9 -16.74,17.72 -16.74,32.31 0,11.48 3.45,20.22 10.42,26.21 6.92,5.94 16.63,8.94 29.14,8.94z"/>
   <path class="fil2" d="M183.47 124.38c2.98,-1.69 5.92,-3.26 8.81,-4.7 3.65,-1.82 7.39,-3.52 11.21,-5.1 19.24,-7.96 38.83,-12.03 58.38,-12.78l0.12 0c3.38,-0.13 6.75,-0.15 10.05,-0.07 3.34,0.09 6.59,0.29 9.73,0.61 16.57,1.67 30.8,6.65 39.3,16.02 0.6,0.65 1.08,1.33 1.46,2.03 1.12,2.06 1.26,4.11 0.66,6.08 -0.53,1.76 -1.65,3.35 -3.16,4.72 -1.06,0.96 -2.34,1.84 -3.76,2.61 -1.35,0.73 -2.18,1.37 -2.56,1.92 0.11,0.12 0.31,0.29 0.59,0.48 1.62,1.14 4.57,2.1 8.54,2.76l0.01 0 0.16 0.03 0 0c16.62,2.74 36.67,3.65 57.9,4.62 5.32,0.25 10.73,0.49 15.84,0.75 18.9,0.97 34.94,1.93 47.91,3.7 13.3,1.82 23.45,4.52 30.24,8.94 0.64,0.42 1.24,0.87 1.78,1.35l0.01 -0.01c2.07,1.83 3.31,4.02 3.65,6.42 0.33,2.39 -0.26,4.87 -1.85,7.31 -0.42,0.65 -0.9,1.28 -1.42,1.87 -3.47,3.94 -6.3,7.35 -8.38,10.33 -1.99,2.84 -3.33,5.32 -3.96,7.52l-0.01 0.02c-0.2,0.7 -0.33,1.39 -0.39,2.05 -0.05,0.65 -0.04,1.25 0.03,1.8 0.41,2.99 2.83,5.57 7.26,7.72l-0.01 0.01 0.1 0.04c8.87,4.31 19.09,7.04 28.88,9.65 14.48,3.87 28.08,7.5 36.43,15.84l-3.56 5.06c-6.72,-3.15 -12.83,-5.81 -18.67,-7.58 -5.69,-1.74 -11.17,-2.64 -16.82,-2.38l-0.14 0c-21.17,0.08 -37.05,-1.3 -48.07,-5.58 -11.83,-4.58 -18.19,-12.31 -19.5,-24.75l0 -0.05 0 -0.02c-0.17,-1.68 -0.01,-3.25 0.14,-4.77 0.09,-0.96 0.19,-1.9 0.17,-2.65 -0.06,-1.77 -1.44,-3.06 -8.95,-2.84l-0.14 0 0 0c-10.84,0.35 -25.44,3.38 -42.57,6.93 -12.82,2.65 -27.05,5.6 -42.33,7.97l0 0 -0.03 0.01 -0.03 0.01c-2.3,0.36 -4.71,0.61 -7.17,0.77 -1.25,0.08 -2.52,0.13 -3.79,0.15 0.44,1.14 0.69,2.38 0.69,3.68 0,5.42 -4.3,9.86 -9.56,9.79l-11.03 0c65.25,4.18 125.46,44.11 155.37,101.58 0.82,1.51 3.82,4.19 5.19,5.09 14.27,9.06 37.21,2.25 37.63,-9.6 0.01,-0.12 0,-0.25 0,-0.38l0 0.38 0 43.07c-23.9,20.69 -84.22,19.52 -102.86,-7.63 -20.91,-38.84 -62.37,-64.34 -106.64,-64.34 -44.19,0 -85.66,25.5 -106.56,64.34 -18.65,27.15 -78.97,28.32 -102.87,7.63l0 -43.07 0 -0.38c-0.01,0.13 -0.01,0.26 0,0.38 0.43,11.85 23.36,18.66 37.63,9.6 1.37,-0.9 4.38,-3.58 5.19,-5.09 24.66,-47.38 69.91,-82.83 121.58,-96.17l-78.87 -100.06c-0.98,0.3 -2.02,0.47 -3.09,0.47 -5.69,0 -10.34,-4.68 -10.34,-10.41 0,-5.73 4.65,-10.41 10.34,-10.41 5.7,0 10.35,4.68 10.35,10.41 0,2.37 -0.79,4.55 -2.12,6.3l7.88 10zm7.9 559.12c0,9.03 -3.14,16.42 -9.42,22.17 -6.29,5.57 -14.03,8.36 -23.24,8.36 -2.12,0 -4.65,-0.22 -7.56,-0.66 -2.92,-0.44 -6.28,-1.11 -10.09,-1.99 -7.26,-1.95 -12.97,-2.92 -17.12,-2.92 -6.82,0 -10.54,2.12 -11.16,6.37 -3.18,-2.92 -4.77,-6.64 -4.77,-11.15 0,-4.25 1.81,-7.66 5.44,-10.22 3.27,-2.39 7.12,-3.59 11.55,-3.59 4.33,0 8.98,1.6 13.94,4.78l12.34 8.76c4.6,3.19 8.76,4.78 12.48,4.78 3.01,0 5.93,-1.2 8.76,-3.58 2.83,-2.39 4.25,-5.09 4.25,-8.1 0,-8.05 -5.71,-13.67 -17.13,-16.86 -3.54,-0.97 -7.96,-2.15 -13.27,-3.52 -5.31,-1.36 -11.55,-2.98 -18.72,-4.84 -11.59,-4.96 -17.39,-13.1 -17.39,-24.43 0,-6.99 2.17,-13.05 6.51,-18.18 4.54,-5.55 10.78,-9 18.71,-10.36 -3.54,-1.09 -5.96,-3.24 -5.96,-5.72 0,-1.21 0.59,-2.35 1.59,-3.32 -10.2,-2.21 -17.5,-7.86 -17.5,-14.48l3.68 0 0 -4.13 -9.22 0c0,0 -0.07,0 -0.07,0 -3,0 -5.4,-2.41 -5.4,-5.43 0,-3.03 2.4,-5.43 5.4,-5.36l5.06 0 0 -4.07 -23.98 0c-6.49,0 -11.2,-2.78 -12.84,-5.35l-13.32 -20.24c-1.7,-2.64 -4.89,-3.99 -7.48,-4.66 0.78,0.84 1.26,1.98 1.26,3.22l0 0c0,2.59 -2.1,4.71 -4.68,4.71l-0.44 0c0.22,0.46 0.34,0.99 0.34,1.54 0,1.94 -1.56,3.51 -3.48,3.51 -1.92,0 -3.49,-1.57 -3.49,-3.51 0,-0.55 0.14,-1.08 0.36,-1.54l-0.47 0c-2.58,0 -4.69,-2.12 -4.69,-4.71l0 0c0,-1.54 0.75,-2.92 1.89,-3.79l-1.12 0.01c-2.8,0.07 -5.05,-2.37 -5.05,-5.21 0,-3 2.19,-5.22 5.12,-5.22l16.19 0.21 151.2 0c-26.4,-1.34 -37.06,-9.55 -49.42,-24.61 -8.5,-10.44 -7.57,-21.77 -15.98,-29.45 1.42,4.13 2.18,8.57 2.18,13.18 0,22.36 -18.12,40.59 -40.34,40.59 -22.22,0 -40.34,-18.23 -40.34,-40.59 0,-22.36 18.12,-40.6 40.34,-40.6 9.52,0 18.29,3.35 25.2,8.93 0.31,-1.89 0.79,-3.41 3.6,-3.62l1.98 0 0 -3.99 -4.24 0c-1.43,0 -2.86,-1.23 -2.86,-2.88l0 -0.28c0,-1.65 1.23,-2.89 2.86,-2.89l12.71 0 0 -4.05 -4.85 0c-2.94,0.2 -9.22,-1.58 -9.29,-6.12 -0.07,-3.78 8.61,-21.72 7.38,-27.5 -1.03,-1.79 -2.19,-3.16 -4.44,-4.26l7.99 0 0 -4.33 -18.03 0c-1.51,0 -2.87,-1.24 -2.87,-2.89l0 -0.28c0,-1.64 1.23,-2.88 2.87,-2.88l3.69 0 0 -4.33 -5.98 0c-8.36,0 -4.18,-9.6 -8.35,-14.51l-7.83 0c2.04,1.02 3.44,3.14 3.44,5.58l0 0c0,3.42 -2.77,6.21 -6.17,6.21l-0.6 0c0.3,0.62 0.47,1.31 0.47,2.04 0,2.55 -2.07,4.63 -4.6,4.63 -2.52,0 -4.59,-2.08 -4.59,-4.63 0,-0.73 0.17,-1.42 0.47,-2.04l-0.63 0c-3.39,0 -6.17,-2.79 -6.17,-6.21l0 0c0,-2.44 1.42,-4.56 3.46,-5.58l-4.59 0 0 -9.48 106.97 0 0 9.48 -0.07 0 0 14.51 -0.07 0 0 6.32c0.1,0.28 0.14,0.59 0.14,0.89l0 0.28c0,1.52 -1.36,2.89 -2.87,2.89l-2.46 0 0 4.33 5.26 0c4.72,21.52 16.81,38.91 0.07,37.88l-2.19 0 0 4.05 11.34 0c1.64,0 2.87,1.45 2.87,2.89l0 0.28c0,1.44 -1.43,2.88 -2.87,2.88l-4.5 0 0 3.99 3.68 0c4.99,0 6.08,10.79 5.61,10.79l-68.79 0c1.01,1.35 1.94,2.75 2.79,4.22 17.75,-6.91 35.78,-3.81 46.59,2.04 14.15,7.63 7.59,46.4 46.12,58.78 -2.28,0.14 -4.46,0.25 -6.57,0.34l36.23 0c-28.95,-0.85 -46.19,-10.39 -53.71,-25.3 -16.67,-32.72 13.11,-40.63 4.64,-57.12 24.18,-6.67 28.49,16.77 28.01,33.48 -0.41,15.74 11.34,39.04 36.96,48.6 -2.42,0.16 -4.77,0.27 -7.06,0.34l22.76 0c-35.3,-4.32 -54.19,-42.55 -45.62,-55.82 5.19,-8.11 13.25,-10.04 21.99,-7.49 8.06,2.34 15.24,6.25 24.18,5.29 8.88,0.96 16.05,-2.95 24.11,-5.29 8.75,-2.55 16.81,-0.62 22,7.49 8.57,13.27 -10.32,51.5 -45.56,55.82l22.7 0c-2.29,-0.07 -4.64,-0.18 -7.06,-0.34 25.62,-9.56 37.37,-32.86 36.96,-48.6 -0.48,-16.71 3.83,-40.15 28.01,-33.48 -8.48,16.49 21.31,24.4 4.64,57.12 -7.52,14.91 -24.76,24.45 -53.71,25.3l36.23 0c-2.11,-0.09 -4.29,-0.2 -6.57,-0.34 38.53,-12.38 31.97,-51.15 46.11,-58.78 10.83,-5.85 28.86,-8.95 46.61,-2.03 0.85,-1.47 1.8,-2.88 2.82,-4.23l-68.83 0c-0.47,0 0.62,-10.79 5.61,-10.79l3.96 0 0 -3.99 -4.78 0c-1.44,0 -2.87,-1.44 -2.87,-2.88l0 -0.28c0,-1.44 1.23,-2.89 2.87,-2.89l11.61 0 0 -4.05 -2.46 0c-16.74,1.03 -4.65,-16.36 0.07,-37.88l5.53 0 0 -4.33 -2.73 0c-1.51,0 -2.87,-1.37 -2.87,-2.89l0 -0.28c0,-0.53 0.14,-1.05 0.41,-1.5l0 -5.66 -0.34 0 0 -14.56 -0.07 0 0 -9.48 106.97 0 0 9.48 -5.36 0c2.04,1.02 3.45,3.14 3.45,5.58l0 0c0,3.42 -2.77,6.21 -6.17,6.21l-0.61 0c0.3,0.62 0.48,1.31 0.48,2.04 0,2.55 -2.06,4.63 -4.6,4.63 -2.52,0 -4.59,-2.08 -4.59,-4.63 0,-0.73 0.16,-1.42 0.46,-2.04l-0.61 0c-3.4,0 -6.18,-2.79 -6.18,-6.21l0 0c0,-2.44 1.41,-4.56 3.44,-5.58l-6.83 0c-4.54,4.77 -0.07,14.56 -8.57,14.56l-5.7 0 0 4.28 3.41 0c1.64,0 2.87,1.24 2.87,2.88l0 0.28c0,1.65 -1.37,2.89 -2.87,2.89l-17.76 0 0 4.33 7.72 0c-2.25,1.1 -3.41,2.47 -4.44,4.26 -1.23,5.78 7.45,23.72 7.38,27.5 -0.07,4.54 -6.35,6.32 -9.29,6.12l-4.58 0 0 4.05 12.43 0c1.64,0 2.87,1.24 2.87,2.89l0 0.28c0,1.65 -1.43,2.88 -2.87,2.88l-3.96 0 0 3.99 1.71 0c2.84,0.21 3.3,1.77 3.61,3.67 6.91,-5.56 15.67,-8.89 25.17,-8.89 22.22,0 40.33,18.24 40.33,40.59 0,22.36 -18.11,40.6 -40.33,40.6 -22.22,0 -40.34,-18.24 -40.34,-40.6 0,-4.64 0.77,-9.11 2.21,-13.27 -8.42,7.68 -7.48,19.02 -15.99,29.46 -12.36,15.06 -23.02,23.27 -49.42,24.61l151.2 0 15.98 0c2.94,0 5.33,2.01 5.33,5.01 0,2.84 -2.25,5.28 -5.05,5.21l-1.29 -0.01c1.14,0.87 1.9,2.25 1.9,3.79l0 0c0,2.59 -2.11,4.71 -4.68,4.71l-0.47 0c0.23,0.46 0.37,0.99 0.37,1.54 0,1.94 -1.57,3.51 -3.49,3.51 -1.92,0 -3.48,-1.57 -3.48,-3.51 0,-0.55 0.12,-1.08 0.35,-1.54l-0.47 0c-2.58,0 -4.68,-2.12 -4.68,-4.71l0 0c0,-1.18 0.43,-2.27 1.14,-3.09 -2.58,0.72 -5.63,2.08 -7.2,4.53l-13.32 20.24c-1.5,2.29 -6.35,5.35 -12.84,5.35l-24.39 0 0 4.07 5.12 0c3.15,-0.07 5.53,2.33 5.53,5.36 0,3.02 -2.38,5.43 -5.39,5.43 0,0 -0.07,0 -0.14,0l-9.37 0 0 4.13 3.77 0c0,6.57 -7.19,12.2 -17.28,14.43 1.04,0.98 1.64,2.14 1.64,3.37 0,3.27 -4.23,5.99 -9.67,6.41l0.99 0.11c3.98,0.44 7.42,0.8 10.29,1.06 2.87,0.26 5.29,0.4 7.23,0.4 0.18,0 0.94,-0.12 2.26,-0.33 1.32,-0.22 3.14,-0.56 5.44,-1 0.09,0.62 0.16,1.18 0.2,1.66 0.04,0.48 0.07,0.91 0.07,1.26 0,5.22 -2.17,9.69 -6.51,13.41 -4.42,3.63 -9.24,5.44 -14.47,5.44 -5.31,0 -9.2,-2.12 -11.68,-6.37 1.24,-1.24 1.86,-2.48 1.86,-3.72 0,-2.56 -1.33,-4.6 -3.98,-6.1 -2.3,-1.24 -4.82,-1.86 -7.57,-1.86 -11.68,0 -17.52,4.02 -17.52,12.08 0,5.84 5.57,10.09 16.73,12.74 18.05,4.25 28.4,7.08 31.06,8.5 11.24,5.4 16.86,14.47 16.86,27.21 0,9.03 -3.14,16.42 -9.43,22.17 -6.28,5.57 -14.02,8.36 -23.23,8.36 -2.12,0 -4.65,-0.22 -7.56,-0.66 -2.92,-0.44 -6.29,-1.11 -10.09,-1.99 -7.26,-1.95 -12.97,-2.92 -17.13,-2.92 -6.81,0 -10.53,2.12 -11.15,6.37 -3.19,-2.92 -4.78,-6.64 -4.78,-11.15 0,-4.25 1.82,-7.66 5.44,-10.22 3.28,-2.39 7.13,-3.59 11.55,-3.59 4.34,0 8.99,1.6 13.94,4.78l12.35 8.76c4.6,3.19 8.76,4.78 12.48,4.78 3.01,0 5.93,-1.2 8.76,-3.58 2.82,-2.39 4.25,-5.09 4.25,-8.1 0,-8.05 -5.71,-13.67 -17.13,-16.86 -3.54,-0.97 -7.97,-2.15 -13.27,-3.52 -5.31,-1.36 -11.55,-2.98 -18.72,-4.84 -11.59,-4.96 -17.39,-13.1 -17.39,-24.43 0,-6.99 2.17,-13.05 6.5,-18.18 6.02,-7.35 15,-11.02 26.95,-11.02 1.95,0 4.34,0.14 7.17,0.4 0.79,0.07 1.64,0.15 2.52,0.24 -3.5,-1.09 -5.89,-3.24 -5.89,-5.7 0,-1.21 0.57,-2.35 1.57,-3.32 -10.2,-2.2 -17.49,-7.86 -17.49,-14.48l3.69 0 0 -4.13 -9.22 0c0,0 -0.07,0 -0.07,0 -3,0 -5.39,-2.41 -5.39,-5.43 0,-3.03 2.39,-5.43 5.39,-5.36l5.06 0 0 -4.07 -252.27 0 0 4.07 5.12 0c3.15,-0.07 5.54,2.33 5.54,5.36 0,3.02 -2.39,5.43 -5.4,5.43 0,0 -0.07,0 -0.14,0l-9.36 0 0 4.13 3.76 0c0,6.57 -7.17,12.2 -17.26,14.43 1.03,0.98 1.62,2.14 1.62,3.37 0,2.12 -1.77,4 -4.48,5.18 1.1,0.07 2.29,0.16 3.57,0.28 2.83,0.26 6.24,0.62 10.22,1.06 3.99,0.44 7.42,0.8 10.29,1.06 2.87,0.26 5.29,0.4 7.24,0.4 0.17,0 0.93,-0.12 2.25,-0.33 1.33,-0.22 3.15,-0.56 5.45,-1 0.09,0.62 0.16,1.18 0.2,1.66 0.04,0.48 0.06,0.91 0.06,1.26 0,5.22 -2.17,9.69 -6.5,13.41 -4.43,3.63 -9.25,5.44 -14.47,5.44 -5.31,0 -9.21,-2.12 -11.68,-6.37 1.24,-1.24 1.85,-2.48 1.85,-3.72 0,-2.56 -1.32,-4.6 -3.98,-6.1 -2.3,-1.24 -4.82,-1.86 -7.56,-1.86 -11.69,0 -17.53,4.02 -17.53,12.08 0,5.84 5.58,10.09 16.73,12.74 18.05,4.25 28.41,7.08 31.06,8.5 11.24,5.4 16.86,14.47 16.86,27.21zm201.25 -41.42c0,5.23 -2.48,12.57 -7.44,22.04 -2.03,3.54 -4.04,7.03 -6.04,10.49 -1.99,3.45 -4,6.94 -6.04,10.48 -4.6,8.06 -6.9,14.78 -6.9,20.18 0,2.83 1.24,5.22 3.72,7.17l-33.45 0c2.3,-1.86 3.45,-3.98 3.45,-6.37 0,-0.62 -0.14,-1.29 -0.4,-1.99l-28.01 -76.2c-1.51,-3.81 -3.23,-6.59 -5.18,-8.36l33.59 0c-2.13,1.77 -3.19,3.85 -3.19,6.24 0,0.79 0.13,1.5 0.4,2.12l24.29 67.04c0.44,-1.77 1.29,-4.47 2.52,-8.1 1.24,-3.63 2.97,-8.19 5.18,-13.67 3.19,-8.06 4.78,-15.67 4.78,-22.84 0,-5.31 -1.24,-10 -3.72,-14.07 -3.09,-4.78 -7.08,-7.17 -11.94,-7.17 -2.39,0 -4.12,0.27 -5.18,0.8 3.45,-8.85 9.29,-13.27 17.52,-13.27 6.37,0 11.73,2.7 16.06,8.09 3.99,5.05 5.98,10.85 5.98,17.39zm-86.95 70.36l-33.45 0c2.56,-2.04 3.67,-4.82 3.31,-8.36l-7.16 -69.7 -21.24 78.06 -9.96 0 -22.44 -76.73 -3.84 65.98c-0.27,3.98 1.68,7.56 5.84,10.75l-18.99 0c3.99,-3.01 6.11,-6.59 6.38,-10.75l5.3 -73.81c0.27,-3.19 -1.1,-5.97 -4.11,-8.36l29.47 0 16.33 54.16 15.53 -54.16 28.67 0c-3.09,2.56 -4.47,5.35 -4.11,8.36l9.56 76.2c0.44,3.36 2.08,6.15 4.91,8.36zm-13.31 -530.11l-0.18 -0.07 -7.34 0 -0.33 0.07 7.85 0zm-21.28 4.59c-5.16,2.03 -10.26,4 -15.42,5.83 -4.92,1.75 -9.79,3.33 -14.65,4.64l14.49 18.39 -1.47 1.15c9.5,-2.19 19.21,-3.63 29.02,-4.26l-11.31 0c-5.26,0.07 -9.56,-4.37 -9.56,-9.79 0,-5.43 4.3,-9.87 9.63,-9.8l3.56 0c1.45,-1.61 2.01,-3.67 0.75,-5.26l-3.01 0c-0.8,0 -1.53,-0.35 -2.03,-0.9zm-75.99 -61.61c-2.62,1.3 -5.18,2.65 -7.69,4.06l49.36 62.63c5.56,-1.39 11.15,-3.17 16.81,-5.18 6.27,-2.22 12.81,-4.8 19.5,-7.45 1.35,-0.54 2.66,-1.02 3.93,-1.45 -0.73,-1.34 -1.16,-2.93 -1.16,-4.74 0,-8.11 17.62,-13.54 18.38,-23.3 0.75,9.76 18.37,15.19 18.37,23.3 0,4.47 -2.6,7.56 -6.01,9.08l-5.6 0 0.03 0.07 14.59 0c1.5,0 2.73,1.23 2.73,2.75 0,1.51 -1.23,2.74 -2.73,2.74l-3.46 0c-0.93,1.36 -1.07,2.69 -0.29,4.01 3.09,0.64 6.69,0.99 10.49,1.09 2.13,0.05 4.35,0 6.62,-0.14 2.17,-0.14 4.39,-0.38 6.6,-0.72l0 0.01 0.02 0 0.02 0c15.08,-2.34 29.27,-5.28 42.06,-7.93 17.4,-3.61 32.23,-6.68 43.63,-7.05l0.01 0 0.14 0c12.83,-0.38 15.24,3.6 15.4,8.94 0.03,1.17 -0.08,2.28 -0.19,3.43 -0.13,1.22 -0.25,2.47 -0.15,3.54l0 0 0.01 0.05c1.03,9.78 6.09,15.89 15.51,19.54 9.51,3.69 23.34,5.05 41.71,5.16 -8.41,-2.3 -16.95,-4.87 -24.75,-8.66l-0.11 -0.05 -0.01 0c-6.42,-3.13 -10,-7.32 -10.72,-12.55 -0.14,-1.05 -0.17,-2.1 -0.08,-3.17 0.09,-1.05 0.3,-2.13 0.61,-3.24l0.01 -0.01c0.82,-2.88 2.47,-5.96 4.87,-9.39 2.31,-3.3 5.26,-6.88 8.8,-10.9 0.36,-0.41 0.66,-0.79 0.88,-1.13 0.72,-1.11 1.01,-2.14 0.89,-3.02 -0.12,-0.88 -0.66,-1.75 -1.59,-2.56l0 -0.02c-0.3,-0.26 -0.65,-0.53 -1.05,-0.78 -5.93,-3.87 -15.25,-6.29 -27.66,-7.98 -12.73,-1.75 -28.63,-2.7 -47.39,-3.66 -5.53,-0.28 -10.7,-0.52 -15.79,-0.75 -21.44,-0.97 -41.7,-1.9 -58.65,-4.7l-0.02 0 -0.15 -0.02 0 -0.01c-4.89,-0.81 -8.73,-2.14 -11.11,-3.81 -1.52,-1.07 -2.56,-2.32 -3.05,-3.74l0.01 0c-0.58,-1.69 -0.4,-3.4 0.65,-5.09 0.9,-1.48 2.53,-2.91 4.95,-4.22 0.97,-0.53 1.83,-1.11 2.53,-1.75 0.71,-0.65 1.21,-1.29 1.39,-1.89 0.12,-0.38 0.08,-0.81 -0.17,-1.26 -0.13,-0.24 -0.32,-0.51 -0.59,-0.8 -7.37,-8.12 -20.18,-12.49 -35.27,-14.01 -3.03,-0.3 -6.13,-0.5 -9.26,-0.58 -3.16,-0.08 -6.4,-0.06 -9.69,0.07l-0.12 0c-18.82,0.72 -37.67,4.64 -56.22,12.32 -3.53,1.46 -7.13,3.1 -10.78,4.92zm99.14 158.96c51.1,0 92.77,41.93 92.77,93.35 0,51.42 -41.67,93.36 -92.77,93.36 -51.08,0 -92.76,-41.94 -92.76,-93.36 0,-51.42 41.68,-93.35 92.76,-93.35zm-187.2 15.19c5.66,0 10.28,4.66 10.28,10.36 0,5.71 -4.62,10.36 -10.28,10.36 -5.67,0 -10.3,-4.65 -10.3,-10.36 0,-5.7 4.63,-10.36 10.3,-10.36zm374.72 0c-5.67,0 -10.3,4.66 -10.3,10.36 0,5.71 4.63,10.36 10.3,10.36 5.67,0 10.29,-4.65 10.29,-10.36 0,-5.7 -4.62,-10.36 -10.29,-10.36zm-396.83 9.9l0 -0.32c-0.01,0.11 0,0.22 0,0.32zm0 -0.32l0 -0.16c-0.01,0.06 0,0.1 0,0.16zm418.93 0.32c0,-0.1 0,-0.21 0,-0.32l0 -0.16c0.01,0.06 0,0.11 0,0.16 0,-0.05 0.01,-0.1 0,-0.16l0 0.16c0,0.11 0,0.22 0,0.32zm-47.23 192.52c0.61,-0.01 1.13,-0.14 1.58,-0.4 0.45,-0.27 0.78,-0.61 1.02,-1.04 0.24,-0.44 0.37,-0.91 0.37,-1.43l0 -8.31 5.49 0 0 2.77 5.79 0 0 -9.85 6.29 0 0 22.62 -6.29 0 0 -7.92 -5.69 0 0 1.63c-0.01,1.03 -0.21,1.96 -0.61,2.82 -0.41,0.86 -0.96,1.6 -1.68,2.24 -0.72,0.64 -1.56,1.13 -2.51,1.48 -0.96,0.36 -2,0.53 -3.12,0.54 -1.68,-0.01 -3.21,-0.3 -4.6,-0.88 -1.38,-0.58 -2.57,-1.41 -3.58,-2.51 -0.99,-1.1 -1.76,-2.42 -2.28,-3.96 -0.53,-1.54 -0.77,-3.28 -0.73,-5.22 0.06,-2.02 0.38,-3.75 0.97,-5.18 0.58,-1.44 1.38,-2.6 2.39,-3.5 1.02,-0.89 2.2,-1.56 3.54,-1.99 1.34,-0.43 2.81,-0.65 4.39,-0.67 0.94,-0.02 1.75,0.02 2.42,0.12 0.67,0.1 1.2,0.21 1.6,0.33 0.38,0.12 0.63,0.21 0.73,0.25l0 4.45c-0.05,-0.04 -0.28,-0.11 -0.69,-0.2 -0.42,-0.09 -0.95,-0.18 -1.59,-0.26 -0.62,-0.08 -1.28,-0.12 -1.98,-0.13 -0.86,0.01 -1.62,0.22 -2.27,0.62 -0.64,0.42 -1.18,0.97 -1.61,1.66 -0.43,0.7 -0.76,1.49 -0.99,2.35 -0.22,0.87 -0.35,1.77 -0.37,2.69 -0.03,1.55 0.14,2.83 0.5,3.86 0.36,1.01 0.84,1.77 1.45,2.27 0.62,0.51 1.31,0.75 2.06,0.75zm24.15 -18.26l6.24 0 0 22.62 -6.24 0 0 -22.62zm18.56 18.16c-0.67,-0.02 -1.37,-0.14 -2.09,-0.36 -0.71,-0.22 -1.41,-0.54 -2.09,-0.93 -0.69,-0.4 -1.3,-0.88 -1.84,-1.42 -0.54,-0.54 -0.98,-1.15 -1.3,-1.82 -0.33,-0.67 -0.49,-1.38 -0.5,-2.15l0 -5.49c0.01,-0.01 0.02,-0.12 0.02,-0.31 -0.01,-0.19 -0.08,-0.4 -0.22,-0.63 -0.07,-0.1 -0.17,-0.18 -0.29,-0.23 -0.13,-0.06 -0.23,-0.11 -0.33,-0.14 -0.11,-0.02 -0.16,-0.03 -0.17,-0.03l-2.03 0 0 -4.65 5.4 0c0.71,0.01 1.34,0.21 1.88,0.58 0.54,0.37 0.96,0.85 1.27,1.45 0.3,0.6 0.45,1.24 0.46,1.93l0 7.18c0.01,0.66 0.25,1.19 0.73,1.56 0.47,0.38 1.12,0.58 1.94,0.61 0.6,0 1.16,-0.09 1.71,-0.24 0.55,-0.15 1,-0.3 1.35,-0.45 0.36,-0.16 0.54,-0.24 0.56,-0.25l0 -12.37 6.28 0 0 22.62 -6.28 0 0 -5.15c-0.01,0.01 -0.19,0.07 -0.56,0.18 -0.38,0.11 -0.89,0.23 -1.56,0.33 -0.66,0.12 -1.44,0.18 -2.34,0.18zm14.31 -18.16l6.23 0 0 22.62 -6.23 0 0 -22.62zm-324.72 64.65l0 4.83c-0.78,-0.25 -1.59,-0.34 -2.4,-0.3 -0.8,0.04 -1.54,0.23 -2.22,0.57 -0.69,0.35 -1.24,0.85 -1.65,1.5 -0.42,0.66 -0.63,1.47 -0.64,2.45 0.01,0.94 0.23,1.73 0.67,2.37 0.44,0.64 1.01,1.13 1.72,1.47 0.72,0.33 1.49,0.52 2.32,0.58 0.84,0.04 1.67,-0.06 2.47,-0.29 0.82,-0.23 1.55,-0.61 2.18,-1.12l0 -12.58 6.6 0 0 23.76 -6.6 0 0 -5.4c-0.23,0.11 -0.58,0.28 -1.03,0.51 -0.45,0.22 -1.05,0.42 -1.81,0.6 -0.75,0.18 -1.69,0.26 -2.83,0.24 -0.93,-0.02 -1.86,-0.17 -2.81,-0.43 -0.94,-0.27 -1.85,-0.67 -2.72,-1.21 -0.87,-0.53 -1.64,-1.21 -2.32,-2.05 -0.69,-0.82 -1.23,-1.81 -1.63,-2.94 -0.4,-1.15 -0.6,-2.46 -0.61,-3.93 0.01,-1.43 0.28,-2.7 0.8,-3.83 0.53,-1.12 1.24,-2.08 2.13,-2.87 0.9,-0.79 1.92,-1.4 3.07,-1.82 1.14,-0.43 2.34,-0.65 3.6,-0.68 1.24,-0.02 2.48,0.17 3.71,0.57zm14.97 -0.52l6.56 0 0 23.76 -6.56 0 0 -23.76zm19.91 15.34l1.04 2.24c0.12,0.26 0.21,0.47 0.3,0.65 0.09,0.18 0.22,0.32 0.4,0.4 0.17,0.1 0.44,0.14 0.81,0.14l5.88 0 0 4.99 -9.73 0c-0.54,0 -0.99,-0.08 -1.33,-0.26 -0.34,-0.18 -0.6,-0.44 -0.78,-0.77 -0.19,-0.34 -0.34,-0.73 -0.43,-1.2l-1.93 -6.19 -3.07 0 0 -5.41 8.06 0c0.67,-0.02 1.19,-0.19 1.58,-0.53 0.38,-0.33 0.63,-0.74 0.76,-1.25 0.11,-0.49 0.09,-0.99 -0.05,-1.49 -0.14,-0.5 -0.42,-0.92 -0.82,-1.25 -0.4,-0.33 -0.93,-0.51 -1.57,-0.52l-6.03 0 0 -4.89 8.16 0c1.02,0.01 1.91,0.19 2.68,0.56 0.77,0.36 1.41,0.88 1.94,1.53 0.52,0.64 0.91,1.38 1.17,2.23 0.27,0.84 0.4,1.74 0.4,2.7l4.47 0 0 -7.02 6.61 0 0 23.76 -6.61 0 0 -11.59 -5.82 0c-0.41,0.61 -0.94,1.15 -1.61,1.63 -0.67,0.47 -1.39,0.85 -2.17,1.12 -0.78,0.27 -1.55,0.41 -2.31,0.42zm46.13 -15.34l6.6 0 0 23.76 -6.6 0 0 -23.76zm-22.21 0l6.4 0 0 14.09c0.01,1.29 0.2,2.34 0.6,3.14 0.4,0.8 0.97,1.37 1.69,1.73 0.71,0.37 1.56,0.55 2.54,0.54 1.14,0.02 2.18,-0.07 3.12,-0.26 0.95,-0.2 1.73,-0.43 2.34,-0.68 0.62,-0.24 1,-0.43 1.15,-0.57l1.35 5.36c-0.16,0.08 -0.54,0.2 -1.09,0.34 -0.56,0.14 -1.24,0.29 -2.04,0.44 -0.8,0.15 -1.63,0.27 -2.51,0.36 -0.88,0.09 -1.72,0.12 -2.52,0.11 -1.77,-0.09 -3.34,-0.45 -4.71,-1.06 -1.37,-0.62 -2.52,-1.42 -3.46,-2.42 -0.94,-0.99 -1.65,-2.1 -2.13,-3.33 -0.49,-1.22 -0.73,-2.49 -0.73,-3.8l0 -13.99zm8.69 0.52c0.06,-0.03 0.21,-0.09 0.47,-0.18 0.26,-0.08 0.57,-0.18 0.96,-0.28 0.38,-0.1 0.77,-0.19 1.18,-0.26 0.42,-0.07 0.81,-0.12 1.18,-0.12 1.02,0.04 1.97,0.27 2.85,0.7 0.88,0.42 1.66,1 2.33,1.72 0.66,0.72 1.19,1.55 1.58,2.47 0.38,0.92 0.59,1.89 0.63,2.92 0,1.1 -0.18,2.15 -0.53,3.13 -0.36,0.99 -0.87,1.87 -1.54,2.64 -0.67,0.77 -1.49,1.38 -2.45,1.82 -0.97,0.44 -2.06,0.67 -3.28,0.67 -0.58,0 -1.1,-0.09 -1.55,-0.25 -0.46,-0.15 -0.85,-0.32 -1.16,-0.5 -0.31,-0.18 -0.54,-0.31 -0.67,-0.39l0 -4.94c0.51,0.48 1.08,0.76 1.72,0.86 0.65,0.09 1.27,0.02 1.88,-0.2 0.6,-0.24 1.1,-0.6 1.5,-1.09 0.4,-0.5 0.6,-1.1 0.62,-1.81 -0.01,-0.53 -0.15,-1.02 -0.43,-1.45 -0.28,-0.44 -0.63,-0.8 -1.08,-1.09 -0.44,-0.28 -0.92,-0.47 -1.44,-0.57 -0.51,-0.09 -1.02,-0.06 -1.5,0.09 -0.49,0.15 -0.91,0.45 -1.27,0.89l0 -4.78zm26.15 -0.52l6.55 0 0 23.76 -6.55 0 0 -23.76zm36.76 15.34l1.04 2.24c0.11,0.26 0.21,0.47 0.29,0.65 0.09,0.18 0.23,0.32 0.4,0.4 0.17,0.1 0.44,0.14 0.82,0.14l5.87 0 0 4.99 -9.72 0c-0.55,0 -1,-0.08 -1.34,-0.26 -0.34,-0.18 -0.6,-0.44 -0.78,-0.77 -0.19,-0.34 -0.34,-0.73 -0.43,-1.2l-1.92 -6.19 -3.07 0 0 -5.41 8.06 0c0.67,-0.02 1.19,-0.19 1.58,-0.53 0.38,-0.33 0.63,-0.74 0.75,-1.25 0.11,-0.49 0.09,-0.99 -0.04,-1.49 -0.15,-0.5 -0.43,-0.92 -0.83,-1.25 -0.4,-0.33 -0.92,-0.51 -1.57,-0.52l-6.03 0 0 -4.89 8.17 0c1.01,0.01 1.9,0.19 2.67,0.56 0.78,0.36 1.42,0.88 1.95,1.53 0.52,0.64 0.91,1.38 1.17,2.23 0.27,0.84 0.4,1.74 0.4,2.7l4.47 0 0 -7.02 6.6 0 0 23.76 -6.6 0 0 -11.59 -5.83 0c-0.4,0.61 -0.94,1.15 -1.61,1.63 -0.67,0.47 -1.39,0.85 -2.17,1.12 -0.78,0.27 -1.55,0.41 -2.3,0.42zm15.75 -26.21c0.8,0.01 1.46,0.2 1.99,0.57 0.53,0.36 0.93,0.84 1.2,1.42 0.27,0.58 0.4,1.21 0.4,1.86 0,0.65 -0.13,1.27 -0.4,1.85 -0.27,0.58 -0.67,1.06 -1.2,1.42 -0.53,0.37 -1.19,0.57 -1.99,0.57 -0.82,0 -1.49,-0.2 -2.04,-0.57 -0.55,-0.36 -0.96,-0.84 -1.23,-1.42 -0.28,-0.58 -0.42,-1.2 -0.42,-1.85 0,-0.65 0.13,-1.28 0.4,-1.86 0.28,-0.58 0.69,-1.06 1.23,-1.42 0.55,-0.37 1.23,-0.56 2.06,-0.57zm28.91 23.04l-5.21 0c-0.4,0.61 -0.94,1.15 -1.61,1.63 -0.66,0.47 -1.38,0.85 -2.16,1.12 -0.78,0.27 -1.56,0.41 -2.31,0.42l0.42 2.03c0.05,0.46 0.2,0.77 0.44,0.94 0.24,0.18 0.6,0.26 1.06,0.25l5.88 0 0 5.2 -9.72 0c-0.55,0 -1,-0.08 -1.34,-0.26 -0.34,-0.18 -0.6,-0.44 -0.78,-0.77 -0.19,-0.34 -0.34,-0.73 -0.43,-1.2l-1.93 -6.19 -3.07 0 0 -5.41 8.64 0c0.67,-0.02 1.21,-0.19 1.6,-0.53 0.39,-0.33 0.65,-0.74 0.76,-1.25 0.13,-0.49 0.11,-0.99 -0.04,-1.49 -0.15,-0.5 -0.42,-0.92 -0.83,-1.25 -0.41,-0.33 -0.94,-0.51 -1.6,-0.52l-6.6 0 0 -4.89 8.74 0c1.01,0.01 1.9,0.19 2.67,0.56 0.78,0.36 1.42,0.88 1.95,1.53 0.52,0.64 0.91,1.38 1.17,2.23 0.27,0.84 0.39,1.74 0.39,2.7l3.91 0 0 5.15zm1.39 -8.01c0.04,-0.84 0.25,-1.57 0.66,-2.22 0.4,-0.64 0.93,-1.19 1.59,-1.63 0.66,-0.44 1.39,-0.78 2.2,-1.01 0.8,-0.23 1.63,-0.34 2.47,-0.34 1.57,0 2.92,0.27 4.06,0.82 1.15,0.55 2.04,1.34 2.67,2.39 0.64,1.04 0.97,2.32 1.02,3.81 0.02,1.7 -0.27,3.12 -0.88,4.25 -0.6,1.15 -1.45,2.02 -2.53,2.64 -1.07,0.61 -2.32,0.96 -3.72,1.06 -0.31,0.01 -0.63,-0.01 -0.94,-0.06 -0.31,-0.04 -0.6,-0.07 -0.86,-0.09 -0.27,-0.02 -0.49,0.01 -0.65,0.09 -0.17,0.09 -0.28,0.26 -0.3,0.53 -0.02,0.25 0.13,0.51 0.46,0.81 0.32,0.29 0.78,0.58 1.35,0.84 0.56,0.27 1.19,0.48 1.9,0.63 0.71,0.16 1.43,0.21 2.16,0.17 0.7,-0.04 1.41,-0.18 2.12,-0.42 0.7,-0.24 1.37,-0.52 1.98,-0.85 0.61,-0.32 1.12,-0.61 1.54,-0.9 0.4,-0.28 0.66,-0.48 0.76,-0.59l0 5.72c-0.15,0.11 -0.39,0.28 -0.74,0.51 -0.34,0.23 -0.79,0.46 -1.35,0.71 -0.55,0.26 -1.2,0.46 -1.94,0.64 -0.75,0.18 -1.59,0.27 -2.52,0.27 -1.24,0 -2.45,-0.16 -3.64,-0.47 -1.19,-0.32 -2.31,-0.77 -3.35,-1.37 -1.05,-0.59 -1.97,-1.3 -2.76,-2.13 -0.81,-0.83 -1.44,-1.76 -1.89,-2.79 -0.45,-1.03 -0.68,-2.14 -0.69,-3.33 0.01,-0.66 0.18,-1.16 0.51,-1.48 0.33,-0.32 0.76,-0.53 1.29,-0.62 0.53,-0.1 1.09,-0.13 1.69,-0.12 0.59,0.01 1.17,0.03 1.71,0.04 2.07,0 3.61,-0.29 4.6,-0.85 1,-0.57 1.5,-1.41 1.49,-2.53 0,-0.48 -0.07,-0.95 -0.23,-1.42 -0.15,-0.47 -0.4,-0.85 -0.74,-1.16 -0.35,-0.32 -0.8,-0.48 -1.37,-0.49 -0.48,0.01 -0.91,0.12 -1.29,0.35 -0.38,0.22 -0.69,0.54 -0.92,0.92 -0.22,0.38 -0.33,0.8 -0.34,1.28 0,0.42 0.02,0.73 0.05,0.91 0.03,0.19 0.09,0.31 0.15,0.37 0.05,0.06 0.12,0.11 0.2,0.15 0.07,0.03 0.14,0.11 0.22,0.23l-4.37 0c-0.01,-0.03 -0.09,-0.17 -0.24,-0.42 -0.15,-0.24 -0.29,-0.61 -0.42,-1.08 -0.13,-0.47 -0.2,-1.06 -0.17,-1.77zm18.25 -4.16l6.55 0 0 23.76 -6.55 0 0 -23.76zm12.63 0l6.55 0 0 23.76 -6.55 0 0 -23.76zm-233.95 -227.75l-2.52 4.55c0.34,0.65 0.55,1.38 0.64,2.2 0.09,0.81 0.07,1.62 -0.06,2.44 -0.15,0.81 -0.4,1.56 -0.76,2.22l1.98 0.62c0.42,0.18 0.77,0.2 1.04,0.07 0.27,-0.13 0.52,-0.4 0.74,-0.81l2.84 -5.14 4.55 2.52 -4.71 8.51c-0.27,0.47 -0.56,0.83 -0.88,1.03 -0.32,0.22 -0.67,0.32 -1.05,0.32 -0.39,0 -0.81,-0.07 -1.26,-0.21l-6.35 -1.32 -1.49 2.69 -4.73 -2.62 4.19 -7.56c0.31,-0.6 0.42,-1.15 0.31,-1.65 -0.1,-0.51 -0.33,-0.93 -0.72,-1.28 -0.37,-0.34 -0.82,-0.57 -1.32,-0.68 -0.52,-0.12 -1.01,-0.08 -1.5,0.12 -0.49,0.19 -0.9,0.57 -1.24,1.14l-3.2 5.78 -4.27 -2.37 4.23 -7.65c0.5,-0.88 1.09,-1.57 1.79,-2.06 0.7,-0.5 1.45,-0.82 2.28,-0.96 0.81,-0.15 1.65,-0.13 2.52,0.06 0.87,0.17 1.72,0.49 2.55,0.96l1.9 -3.42 4.5 2.5zm-1.76 -16.86l3.91 2.85c-0.67,0.49 -1.22,1.08 -1.66,1.76 -0.44,0.68 -0.71,1.39 -0.84,2.14 -0.12,0.76 -0.04,1.49 0.24,2.21 0.29,0.73 0.82,1.38 1.6,1.96 0.77,0.55 1.54,0.83 2.32,0.85 0.78,0.02 1.5,-0.15 2.2,-0.53 0.69,-0.38 1.3,-0.9 1.83,-1.54 0.53,-0.65 0.94,-1.38 1.22,-2.16 0.29,-0.8 0.42,-1.61 0.38,-2.42l-10.19 -7.4 3.89 -5.34 19.22 13.97 -3.88 5.34 -4.37 -3.18c-0.05,0.26 -0.11,0.64 -0.2,1.14 -0.08,0.49 -0.27,1.09 -0.57,1.81 -0.3,0.71 -0.78,1.53 -1.47,2.43 -0.56,0.74 -1.23,1.41 -2,2.02 -0.77,0.61 -1.63,1.11 -2.58,1.49 -0.94,0.39 -1.94,0.62 -3.02,0.68 -1.07,0.07 -2.19,-0.07 -3.34,-0.41 -1.16,-0.35 -2.34,-0.96 -3.53,-1.82 -1.16,-0.85 -2.03,-1.81 -2.63,-2.9 -0.6,-1.08 -0.96,-2.22 -1.07,-3.41 -0.11,-1.19 0,-2.38 0.33,-3.55 0.33,-1.18 0.85,-2.28 1.57,-3.31 0.71,-1.02 1.59,-1.92 2.64,-2.68zm10.91 -13.4l4.64 -4.63 16.8 16.81 -4.63 4.63 -16.81 -16.81zm25.73 -25.11c-0.02,-0.03 -0.21,-0.08 -0.57,-0.18 -0.36,-0.09 -0.87,-0.15 -1.51,-0.18 -0.65,-0.02 -1.4,0.04 -2.26,0.21 -0.86,0.16 -1.8,0.49 -2.82,0.98 -1.02,0.49 -2.07,1.2 -3.18,2.14 -0.73,0.62 -1.24,1.27 -1.55,1.94 -0.31,0.68 -0.48,1.35 -0.5,2.02 -0.02,0.66 0.06,1.29 0.22,1.89 0.16,0.6 0.35,1.13 0.58,1.59 0.22,0.47 0.42,0.83 0.6,1.1 0.17,0.26 0.27,0.39 0.27,0.4l15.28 18.21 -5.02 4.21 -15.28 -18.21c-1.5,-1.8 -2.46,-3.67 -2.86,-5.59 -0.4,-1.93 -0.22,-3.84 0.53,-5.74 0.75,-1.89 2.1,-3.69 4.05,-5.39 1.49,-1.23 2.93,-2.2 4.33,-2.92 1.41,-0.71 2.73,-1.23 3.99,-1.55 1.26,-0.32 2.41,-0.51 3.46,-0.56 1.05,-0.04 1.97,-0.02 2.76,0.09 0.78,0.1 1.41,0.22 1.87,0.35 0.46,0.14 0.73,0.23 0.81,0.27l-3.2 4.92zm-2.94 10.89l-2.5 -4.32c0.04,-0.1 0.21,-0.28 0.53,-0.53 0.31,-0.25 0.72,-0.55 1.23,-0.88 0.51,-0.34 1.06,-0.68 1.67,-1.02 0.61,-0.34 1.22,-0.65 1.83,-0.93 0.62,-0.28 1.19,-0.48 1.73,-0.62 0.53,-0.14 0.98,-0.18 1.34,-0.11 0.45,0.09 0.84,0.25 1.16,0.48 0.32,0.22 0.58,0.47 0.78,0.73 0.2,0.25 0.34,0.47 0.43,0.66 0.1,0.18 0.14,0.28 0.14,0.29l2.76 4.77 5.13 -2.96 -4.63 -8.02 5.72 -3.3 11.89 20.58 -5.72 3.3 -4.69 -8.1 -5.13 2.96 1.12 1.94c0.38,0.68 0.54,1.4 0.46,2.14 -0.07,0.74 -0.33,1.43 -0.78,2.07 -0.44,0.65 -1.03,1.16 -1.76,1.55 -0.96,0.54 -1.85,0.84 -2.68,0.89 -0.83,0.05 -1.59,-0.09 -2.29,-0.42 -0.7,-0.33 -1.34,-0.78 -1.9,-1.37 -0.55,-0.59 -1.04,-1.25 -1.46,-1.98 -0.47,-0.8 -0.73,-1.53 -0.78,-2.19 -0.05,-0.65 0.04,-1.23 0.25,-1.73 0.2,-0.51 0.47,-0.94 0.79,-1.28 0.31,-0.35 0.6,-0.62 0.85,-0.8 0.25,-0.18 0.39,-0.28 0.43,-0.29l-1.12 -1.93c-0.15,-0.28 -0.29,-0.54 -0.41,-0.78 -0.12,-0.25 -0.26,-0.47 -0.43,-0.67 -0.16,-0.2 -0.38,-0.37 -0.66,-0.52 -0.18,-0.08 -0.41,-0.06 -0.69,0.07 -0.26,0.13 -0.55,0.3 -0.85,0.55 -0.3,0.24 -0.58,0.48 -0.84,0.74 -0.26,0.26 -0.48,0.5 -0.65,0.69 -0.17,0.19 -0.26,0.31 -0.27,0.34zm27.19 -7.15c-0.37,-1.04 -0.49,-2.06 -0.38,-3.09 0.12,-1.03 0.42,-2.01 0.93,-2.92 0.51,-0.92 1.17,-1.73 1.99,-2.43 0.8,-0.7 1.73,-1.24 2.76,-1.63l11.83 -4.3 -2.05 -5.62 6.21 -2.26 8.13 22.33 -6.21 2.26 -4.34 -11.92 -4.49 1.63c0.08,0.1 0.26,0.25 0.52,0.44 0.27,0.19 0.57,0.53 0.93,1.03 0.37,0.49 0.74,1.24 1.12,2.25 0.36,0.93 0.53,1.85 0.52,2.79 -0.02,0.93 -0.22,1.81 -0.61,2.66 -0.39,0.86 -0.98,1.61 -1.75,2.3 -0.77,0.68 -1.73,1.23 -2.88,1.66 -1.24,0.45 -2.48,0.71 -3.71,0.77 -1.22,0.05 -2.39,-0.11 -3.5,-0.49 -1.1,-0.39 -2.08,-1.03 -2.95,-1.93 -0.86,-0.9 -1.56,-2.08 -2.07,-3.53zm9.5 -6.28c-0.11,0.01 -0.33,0.08 -0.63,0.2 -0.31,0.13 -0.64,0.31 -1.01,0.55 -0.37,0.24 -0.7,0.54 -1,0.92 -0.29,0.36 -0.49,0.8 -0.59,1.32 -0.09,0.51 -0.03,1.1 0.2,1.76 0.26,0.78 0.62,1.37 1.09,1.79 0.46,0.41 0.97,0.65 1.54,0.74 0.56,0.09 1.12,0.04 1.67,-0.16 0.64,-0.23 1.12,-0.6 1.41,-1.11 0.29,-0.52 0.43,-1.1 0.42,-1.75 -0.01,-0.65 -0.15,-1.28 -0.41,-1.89 -0.26,-0.63 -0.62,-1.15 -1.08,-1.58 -0.46,-0.43 -1,-0.7 -1.61,-0.79zm19.33 -17.68l6.38 -1.48 5.35 23.16 -6.39 1.47 -5.34 -23.15zm14.02 1.63l-0.59 -4.86 9.39 -1.15c0.94,-0.11 1.84,-0.02 2.71,0.25 0.88,0.28 1.66,0.71 2.38,1.28 0.72,0.58 1.3,1.27 1.76,2.07 0.47,0.8 0.76,1.68 0.89,2.63 0.17,1.32 0.11,2.47 -0.17,3.43 -0.27,0.97 -0.69,1.8 -1.24,2.47 -0.56,0.68 -1.16,1.24 -1.83,1.66 -0.67,0.43 -1.31,0.76 -1.93,1 -0.62,0.24 -1.13,0.4 -1.54,0.49 -0.41,0.09 -0.62,0.14 -0.66,0.13l0.93 2.46c0.08,0.42 0.26,0.72 0.54,0.86 0.27,0.15 0.64,0.21 1.11,0.14l5.83 -0.72 0.57 4.65 -9.65 1.18c-0.77,0.09 -1.39,-0.03 -1.86,-0.36 -0.46,-0.34 -0.81,-0.84 -1.05,-1.53l-2.56 -5.92 -3.56 0.43 -0.66 -5.36 9.19 -1.13c0.68,-0.1 1.2,-0.34 1.55,-0.73 0.37,-0.37 0.57,-0.82 0.64,-1.33 0.07,-0.51 0,-1.01 -0.21,-1.48 -0.2,-0.48 -0.51,-0.86 -0.96,-1.14 -0.43,-0.28 -0.98,-0.39 -1.64,-0.33l-7.38 0.91zm23.29 -6.71l6.55 0 0 23.77 -6.55 0 0 -23.77zm14.01 4.54l0.61 -4.96 8.21 1.01c0.86,0.12 1.63,0.39 2.32,0.84 0.68,0.45 1.26,1.01 1.74,1.69 0.46,0.68 0.81,1.43 1.01,2.25 0.21,0.82 0.26,1.66 0.16,2.52 -0.2,1.34 -0.62,2.42 -1.23,3.28 -0.61,0.85 -1.37,1.49 -2.28,1.92 -0.9,0.44 -1.9,0.68 -2.98,0.76 -0.47,0.01 -0.91,-0.02 -1.33,-0.11 -0.4,-0.08 -0.78,-0.15 -1.11,-0.21 -0.34,-0.06 -0.62,-0.05 -0.84,0.03 -0.22,0.08 -0.36,0.29 -0.43,0.62 -0.07,0.39 0.05,0.76 0.32,1.11 0.28,0.34 0.67,0.66 1.16,0.94 0.5,0.29 1.04,0.53 1.64,0.72 0.59,0.19 1.16,0.32 1.73,0.39 1.01,0.09 1.95,0.06 2.8,-0.1 0.86,-0.15 1.6,-0.35 2.23,-0.61 0.62,-0.24 1.12,-0.47 1.46,-0.67 0.35,-0.2 0.53,-0.31 0.53,-0.32l1.72 -13.99 6.56 0.8 -2.9 23.6 -6.56 -0.81 0.46 -3.72c-0.05,0.01 -0.26,0.08 -0.65,0.23 -0.38,0.14 -0.9,0.3 -1.55,0.47 -0.65,0.18 -1.4,0.3 -2.25,0.39 -0.84,0.09 -1.74,0.08 -2.7,-0.03 -1.16,-0.14 -2.3,-0.45 -3.39,-0.92 -1.1,-0.46 -2.11,-1.07 -3.03,-1.8 -0.93,-0.75 -1.72,-1.58 -2.38,-2.53 -0.66,-0.95 -1.14,-1.97 -1.44,-3.08 -0.3,-1.12 -0.36,-2.27 -0.21,-3.48 0.07,-0.45 0.24,-0.84 0.52,-1.15 0.28,-0.32 0.63,-0.56 1.03,-0.71 0.41,-0.15 0.83,-0.21 1.27,-0.15l4.54 0.56c0.41,0.04 0.82,0.02 1.24,-0.1 0.42,-0.1 0.78,-0.3 1.09,-0.58 0.31,-0.28 0.5,-0.65 0.56,-1.12 0.05,-0.48 -0.01,-0.88 -0.19,-1.2 -0.19,-0.33 -0.44,-0.58 -0.78,-0.76 -0.33,-0.17 -0.7,-0.29 -1.1,-0.34l-5.58 -0.68zm54.44 7.1l6.29 2.04 -7.35 22.61 -6.28 -2.04 7.34 -22.61zm-21.12 -6.86l6.09 1.98 -4.36 13.4c-0.39,1.23 -0.52,2.29 -0.39,3.17 0.13,0.88 0.49,1.6 1.06,2.17 0.57,0.57 1.33,1 2.26,1.3 1.07,0.37 2.09,0.61 3.05,0.72 0.96,0.1 1.77,0.12 2.43,0.08 0.66,-0.04 1.08,-0.11 1.27,-0.19l-0.37 5.51c-0.18,0.03 -0.57,0.02 -1.14,-0.02 -0.59,-0.03 -1.27,-0.1 -2.08,-0.21 -0.8,-0.1 -1.63,-0.25 -2.5,-0.43 -0.86,-0.19 -1.67,-0.41 -2.43,-0.68 -1.66,-0.63 -3.04,-1.45 -4.15,-2.46 -1.11,-1.01 -1.96,-2.13 -2.54,-3.37 -0.59,-1.23 -0.92,-2.5 -1,-3.82 -0.09,-1.31 0.07,-2.6 0.48,-3.85l4.32 -13.3zm8.1 3.18c0.07,-0.01 0.24,-0.02 0.51,-0.02 0.27,0 0.6,0 0.99,0.02 0.4,0.03 0.79,0.07 1.21,0.12 0.42,0.06 0.81,0.14 1.16,0.26 0.96,0.35 1.79,0.86 2.5,1.54 0.7,0.67 1.26,1.47 1.67,2.36 0.42,0.89 0.67,1.84 0.75,2.84 0.08,0.99 -0.02,1.98 -0.31,2.96 -0.34,1.05 -0.83,1.99 -1.47,2.82 -0.64,0.83 -1.4,1.51 -2.27,2.03 -0.88,0.53 -1.85,0.85 -2.9,0.98 -1.06,0.12 -2.17,-0.01 -3.33,-0.38 -0.54,-0.18 -1.01,-0.42 -1.39,-0.71 -0.39,-0.29 -0.71,-0.57 -0.95,-0.84 -0.24,-0.27 -0.42,-0.46 -0.52,-0.58l1.52 -4.7c0.34,0.61 0.8,1.06 1.38,1.35 0.59,0.29 1.2,0.42 1.85,0.39 0.64,-0.03 1.23,-0.22 1.76,-0.57 0.54,-0.35 0.91,-0.86 1.15,-1.53 0.15,-0.51 0.17,-1.01 0.04,-1.51 -0.13,-0.5 -0.35,-0.96 -0.69,-1.37 -0.34,-0.41 -0.73,-0.74 -1.2,-0.99 -0.45,-0.25 -0.94,-0.37 -1.45,-0.38 -0.51,0 -1,0.15 -1.49,0.46l1.48 -4.55zm40.57 23.82l3 -3.99c0.1,-0.01 0.34,0.08 0.69,0.27 0.36,0.2 0.79,0.46 1.3,0.79 0.5,0.34 1.03,0.72 1.58,1.14 0.56,0.43 1.08,0.87 1.57,1.33 0.5,0.46 0.92,0.9 1.26,1.35 0.33,0.43 0.54,0.83 0.62,1.19 0.09,0.45 0.1,0.87 0.01,1.25 -0.08,0.38 -0.21,0.72 -0.36,1 -0.16,0.28 -0.3,0.5 -0.44,0.66 -0.14,0.16 -0.21,0.24 -0.22,0.24l-3.32 4.4 4.74 3.57 5.57 -7.39 5.28 3.97 -14.31 18.98 -5.27 -3.97 5.63 -7.48 -4.73 -3.57 -1.35 1.79c-0.48,0.62 -1.08,1.04 -1.79,1.27 -0.71,0.22 -1.45,0.25 -2.22,0.09 -0.76,-0.16 -1.46,-0.5 -2.11,-1.02 -0.87,-0.67 -1.49,-1.37 -1.86,-2.12 -0.37,-0.75 -0.54,-1.5 -0.51,-2.28 0.03,-0.77 0.2,-1.53 0.52,-2.27 0.32,-0.75 0.74,-1.45 1.25,-2.12 0.55,-0.75 1.12,-1.27 1.71,-1.58 0.58,-0.3 1.15,-0.44 1.69,-0.45 0.55,-0.01 1.05,0.07 1.49,0.23 0.44,0.15 0.8,0.31 1.07,0.47 0.26,0.16 0.41,0.25 0.43,0.28l1.34 -1.78c0.2,-0.25 0.38,-0.48 0.56,-0.68 0.18,-0.21 0.33,-0.43 0.45,-0.66 0.12,-0.23 0.19,-0.5 0.22,-0.8 0,-0.21 -0.11,-0.41 -0.34,-0.61 -0.22,-0.2 -0.49,-0.4 -0.83,-0.58 -0.34,-0.17 -0.68,-0.34 -1.02,-0.48 -0.34,-0.14 -0.64,-0.25 -0.88,-0.33 -0.25,-0.08 -0.39,-0.12 -0.42,-0.11zm27.3 1.46c0.59,0.54 0.95,1.13 1.1,1.76 0.15,0.63 0.12,1.25 -0.06,1.86 -0.19,0.61 -0.51,1.16 -0.95,1.65 -0.43,0.48 -0.95,0.86 -1.54,1.11 -0.59,0.25 -1.2,0.34 -1.84,0.25 -0.64,-0.07 -1.26,-0.38 -1.86,-0.91 -0.6,-0.55 -0.98,-1.14 -1.13,-1.78 -0.16,-0.64 -0.15,-1.27 0.03,-1.88 0.19,-0.62 0.5,-1.18 0.94,-1.66 0.42,-0.49 0.95,-0.86 1.53,-1.11 0.6,-0.25 1.22,-0.33 1.87,-0.24 0.65,0.09 1.29,0.41 1.91,0.95zm17.32 28.8c0.03,-0.03 0.07,-0.22 0.13,-0.59 0.06,-0.36 0.08,-0.87 0.05,-1.52 -0.03,-0.64 -0.17,-1.39 -0.4,-2.23 -0.24,-0.84 -0.65,-1.75 -1.23,-2.72 -0.57,-0.97 -1.37,-1.96 -2.41,-2.98 -0.68,-0.67 -1.37,-1.13 -2.06,-1.38 -0.7,-0.25 -1.39,-0.36 -2.06,-0.32 -0.66,0.04 -1.28,0.17 -1.86,0.38 -0.59,0.21 -1.1,0.45 -1.53,0.72 -0.45,0.26 -0.79,0.49 -1.05,0.69 -0.25,0.19 -0.37,0.3 -0.38,0.31l-16.8 16.81 -4.64 -4.64 16.81 -16.8c1.67,-1.66 3.45,-2.77 5.33,-3.34 1.88,-0.57 3.8,-0.56 5.76,0.02 1.95,0.59 3.85,1.77 5.72,3.57 1.36,1.38 2.45,2.73 3.28,4.06 0.84,1.34 1.47,2.61 1.9,3.84 0.43,1.22 0.71,2.35 0.85,3.4 0.14,1.04 0.19,1.96 0.16,2.75 -0.03,0.79 -0.1,1.42 -0.19,1.9 -0.09,0.47 -0.16,0.74 -0.19,0.82l-5.19 -2.75zm-14.83 3.15c-0.02,-0.02 -0.06,-0.15 -0.11,-0.36 -0.06,-0.22 -0.09,-0.51 -0.1,-0.87 -0.02,-0.36 0.03,-0.77 0.12,-1.21 0.09,-0.44 0.28,-0.9 0.56,-1.38 0.28,-0.47 0.69,-0.93 1.22,-1.37 0.66,-0.54 1.36,-0.88 2.12,-1.01 0.75,-0.13 1.52,-0.1 2.32,0.1 0.79,0.19 1.56,0.51 2.33,0.94 0.76,0.44 1.48,0.94 2.15,1.53 0.68,0.58 1.27,1.18 1.78,1.82 0.48,0.59 0.94,1.23 1.41,1.91 0.45,0.68 0.87,1.33 1.25,1.95 0.38,0.62 0.68,1.13 0.91,1.53 0.23,0.39 0.34,0.59 0.35,0.61l-3.55 2.88c0,-0.01 -0.08,-0.18 -0.23,-0.48 -0.14,-0.31 -0.33,-0.7 -0.58,-1.17 -0.24,-0.48 -0.51,-0.97 -0.82,-1.47 -0.3,-0.51 -0.61,-0.96 -0.94,-1.37 -0.35,-0.45 -0.73,-0.91 -1.13,-1.38 -0.4,-0.48 -0.82,-0.89 -1.27,-1.24 -0.43,-0.34 -0.89,-0.54 -1.37,-0.6 -0.47,-0.06 -0.95,0.1 -1.45,0.49 -0.38,0.33 -0.59,0.68 -0.64,1.07 -0.04,0.39 0.02,0.78 0.2,1.18 0.17,0.39 0.4,0.76 0.68,1.11l4.29 5.29 -3.48 2.82 -4.15 -5.14c-0.45,-0.55 -1.02,-0.84 -1.7,-0.89 -0.68,-0.04 -1.43,0.22 -2.21,0.78 -0.69,0.57 -1.11,1.17 -1.27,1.81 -0.16,0.63 -0.13,1.26 0.08,1.89 0.22,0.64 0.54,1.25 0.98,1.82 0.48,0.61 1.06,1.12 1.73,1.52 0.67,0.39 1.36,0.71 2.08,0.93 0.71,0.23 1.38,0.4 2,0.49 0.62,0.1 1.12,0.17 1.51,0.19 0.38,0.02 0.58,0.04 0.59,0.03l-2 5.64c0,0 -0.21,-0.04 -0.62,-0.13 -0.41,-0.08 -0.97,-0.24 -1.64,-0.46 -0.69,-0.22 -1.44,-0.55 -2.28,-0.96 -0.83,-0.41 -1.68,-0.93 -2.54,-1.57 -0.86,-0.65 -1.68,-1.43 -2.44,-2.36 -0.67,-0.83 -1.25,-1.74 -1.72,-2.71 -0.47,-0.95 -0.82,-1.94 -1.03,-2.95 -0.22,-1.02 -0.29,-2.01 -0.21,-3 0.09,-0.97 0.35,-1.89 0.78,-2.77 0.43,-0.86 1.06,-1.64 1.89,-2.32 0.57,-0.44 1.14,-0.77 1.71,-0.98 0.57,-0.22 1.14,-0.35 1.66,-0.41 0.53,-0.05 1,-0.05 1.42,-0.01 0.41,0.03 0.75,0.09 0.99,0.13 0.24,0.07 0.37,0.1 0.37,0.11zm19.13 17.15l4.32 -2.3 4.44 8.36c0.44,0.84 0.69,1.71 0.74,2.62 0.05,0.91 -0.06,1.8 -0.34,2.68 -0.28,0.87 -0.72,1.66 -1.31,2.39 -0.57,0.72 -1.29,1.31 -2.13,1.76 -1.17,0.63 -2.26,0.99 -3.27,1.08 -1,0.09 -1.92,0 -2.74,-0.28 -0.84,-0.27 -1.57,-0.64 -2.21,-1.11 -0.64,-0.47 -1.18,-0.95 -1.63,-1.44 -0.44,-0.5 -0.77,-0.92 -1,-1.26 -0.24,-0.35 -0.35,-0.54 -0.36,-0.57l-1.96 1.75c-0.37,0.22 -0.58,0.49 -0.62,0.81 -0.04,0.31 0.05,0.67 0.27,1.08l2.76 5.19 -4.13 2.2 -4.57 -8.59c-0.35,-0.68 -0.46,-1.3 -0.32,-1.86 0.15,-0.56 0.49,-1.07 1.05,-1.53l4.61 -4.51 -1.68 -3.17 4.77 -2.54 4.35 8.17c0.34,0.6 0.75,1 1.23,1.19 0.48,0.21 0.97,0.24 1.48,0.12 0.5,-0.12 0.94,-0.36 1.3,-0.72 0.38,-0.36 0.62,-0.79 0.72,-1.31 0.11,-0.51 0.02,-1.06 -0.28,-1.65l-3.49 -6.56zm-363.01 177.73l-3.51 -4.9 6.68 -1.83c-0.02,-0.02 -0.14,-0.1 -0.35,-0.24 -0.2,-0.14 -0.44,-0.34 -0.73,-0.59 -0.29,-0.26 -0.57,-0.57 -0.85,-0.95 -0.28,-0.38 -0.51,-0.81 -0.69,-1.3 -0.18,-0.5 -0.26,-1.06 -0.25,-1.67 0.01,-0.89 0.24,-1.67 0.69,-2.34 0.45,-0.67 1.04,-1.22 1.78,-1.68 0.75,-0.44 1.56,-0.78 2.45,-1.01 0.9,-0.23 1.8,-0.36 2.7,-0.37 1.01,-0.02 2,0.1 2.99,0.34 0.98,0.25 1.88,0.62 2.7,1.12 0.8,0.51 1.45,1.13 1.93,1.87 0.47,0.74 0.71,1.6 0.7,2.56 -0.03,0.7 -0.16,1.31 -0.4,1.84 -0.23,0.52 -0.51,0.98 -0.85,1.35 -0.33,0.38 -0.67,0.68 -1,0.92 -0.33,0.24 -0.6,0.42 -0.82,0.53 -0.22,0.11 -0.34,0.17 -0.35,0.17l6.98 3.51 0 -13.07 6.29 0 0 22.62 -6.29 0 0 -5.49 -12.77 5.89 -3.76 -4.56 9.85 -3.86 -5 -2.62 -8.12 3.76zm8.22 -7.92c0.02,0 0.15,-0.05 0.39,-0.14 0.25,-0.1 0.55,-0.26 0.88,-0.48 0.33,-0.22 0.63,-0.51 0.88,-0.86 0.26,-0.36 0.4,-0.79 0.42,-1.29 0,-0.47 -0.08,-0.88 -0.26,-1.24 -0.17,-0.37 -0.45,-0.66 -0.83,-0.86 -0.38,-0.22 -0.87,-0.32 -1.48,-0.32 -0.53,0 -0.97,0.14 -1.3,0.39 -0.35,0.26 -0.61,0.59 -0.78,0.99 -0.16,0.41 -0.25,0.84 -0.25,1.29 0.01,0.32 0.12,0.63 0.32,0.94 0.21,0.3 0.45,0.57 0.74,0.8 0.28,0.24 0.53,0.43 0.78,0.57 0.24,0.14 0.41,0.21 0.49,0.21zm17.17 -9.75l-6.08 0c-0.01,-0.08 -0.04,-0.35 -0.08,-0.82 -0.03,-0.47 -0.02,-1.07 0.03,-1.77 0.05,-0.7 0.19,-1.43 0.45,-2.21 0.25,-0.77 0.66,-1.5 1.23,-2.18 0.57,-0.68 1.36,-1.23 2.36,-1.66 1.01,-0.43 2.28,-0.65 3.83,-0.66 1.34,0.01 2.6,0.33 3.76,0.94 1.16,0.62 2.18,1.45 3.07,2.51 0.88,1.05 1.56,2.25 2.06,3.58 0.49,1.34 0.75,2.74 0.76,4.2l0 22.62 -6.24 0 0 -22.62c0,-0.57 -0.01,-1.17 -0.06,-1.8 -0.04,-0.64 -0.11,-1.27 -0.24,-1.88 -0.12,-0.6 -0.3,-1.15 -0.54,-1.65 -0.25,-0.5 -0.57,-0.9 -0.97,-1.19 -0.4,-0.3 -0.9,-0.45 -1.5,-0.46 -0.61,0.02 -1.07,0.19 -1.37,0.53 -0.31,0.33 -0.51,0.75 -0.61,1.25 -0.09,0.5 -0.12,1 -0.09,1.5 0.02,0.49 0.07,0.91 0.13,1.24 0.06,0.34 0.1,0.52 0.1,0.53zm19.46 13.22c-0.99,0 -1.88,-0.22 -2.66,-0.65 -0.79,-0.43 -1.42,-1.08 -1.88,-1.96 -0.46,-0.86 -0.7,-1.96 -0.71,-3.28 0.01,-1.07 0.19,-1.97 0.56,-2.73 0.36,-0.76 0.86,-1.38 1.49,-1.87 0.61,-0.48 1.33,-0.83 2.12,-1.05 0.8,-0.23 1.64,-0.34 2.51,-0.34 0.83,0.01 1.67,0.21 2.5,0.57 0.83,0.37 1.65,0.85 2.43,1.44 0.79,0.59 1.52,1.21 2.2,1.87 0.68,0.66 1.27,1.3 1.78,1.89 0.51,0.61 0.91,1.1 1.2,1.5 0.29,0.38 0.43,0.61 0.43,0.65l7.73 -7.33 6.38 0 0 19.6c0,0.99 -0.19,2 -0.57,3.05 -0.38,1.04 -0.96,2.05 -1.74,3.03 -0.77,0.98 -1.76,1.86 -2.96,2.64 -1.2,0.79 -2.62,1.41 -4.25,1.85 -1.62,0.45 -3.49,0.68 -5.58,0.67 -2.15,-0.03 -4.02,-0.28 -5.61,-0.78 -1.59,-0.48 -2.93,-1.13 -4.04,-1.93 -1.09,-0.8 -2,-1.68 -2.71,-2.64 -0.71,-0.95 -1.26,-1.92 -1.67,-2.88 -0.4,-0.98 -0.69,-1.88 -0.87,-2.7 -0.18,-0.83 -0.3,-1.51 -0.36,-2.04 -0.05,-0.54 -0.07,-0.85 -0.08,-0.94l6.19 0c-0.01,0.11 -0.01,0.4 -0.01,0.87 0.01,0.48 0.07,1.06 0.18,1.75 0.12,0.7 0.35,1.41 0.68,2.17 0.34,0.76 0.83,1.47 1.48,2.14 0.65,0.67 1.51,1.22 2.58,1.64 1.08,0.43 2.4,0.65 4,0.69 2.17,0.01 3.96,-0.3 5.38,-0.94 1.41,-0.66 2.46,-1.56 3.15,-2.71 0.68,-1.15 1.02,-2.47 1.02,-3.98l0 -13.06 -5.49 5.34c0.03,0.04 0.15,0.24 0.36,0.6 0.2,0.38 0.43,0.85 0.69,1.42 0.26,0.56 0.48,1.18 0.67,1.82 0.2,0.64 0.3,1.26 0.31,1.85 -0.01,1.36 -0.25,2.45 -0.72,3.31 -0.46,0.85 -1.1,1.48 -1.9,1.88 -0.81,0.41 -1.72,0.61 -2.73,0.61 -1.16,0.02 -2.15,-0.19 -2.96,-0.64 -0.82,-0.45 -1.45,-1.1 -1.88,-1.95 -0.43,-0.84 -0.65,-1.84 -0.65,-3.01 0.01,-0.69 0.14,-1.38 0.39,-2.08 0.25,-0.71 0.55,-1.35 0.88,-1.94 0.33,-0.6 0.63,-1.08 0.89,-1.45 0.27,-0.38 0.42,-0.58 0.46,-0.62 0.01,-0.02 -0.12,-0.21 -0.39,-0.56 -0.26,-0.34 -0.62,-0.78 -1.06,-1.32 -0.46,-0.53 -0.95,-1.09 -1.49,-1.7 -0.54,-0.59 -1.09,-1.15 -1.63,-1.68 -0.55,-0.53 -1.05,-0.96 -1.5,-1.29 -0.46,-0.34 -0.83,-0.52 -1.11,-0.52 -0.32,-0.01 -0.63,0 -0.94,0.06 -0.31,0.05 -0.57,0.2 -0.77,0.45 -0.2,0.25 -0.31,0.65 -0.32,1.22 0.01,0.6 0.09,1.04 0.26,1.31 0.16,0.28 0.38,0.45 0.63,0.53 0.24,0.06 0.49,0.1 0.75,0.09 0.3,-0.01 0.59,-0.06 0.87,-0.14 0.27,-0.09 0.5,-0.17 0.68,-0.26 0.18,-0.09 0.27,-0.14 0.28,-0.14l0 4.05c-0.06,0.04 -0.21,0.1 -0.47,0.19 -0.26,0.09 -0.6,0.17 -1.01,0.24 -0.41,0.08 -0.87,0.11 -1.39,0.12zm181.59 -37.09c37.1,0 52.94,-24.48 52.94,-48.81l0 -97 -19.4 0 0 90.53c0,29.08 -17.62,37.47 -35.38,37.47 -17.69,0 -35.32,-8.11 -35.32,-37.47l0 -90.53 -19.4 0 0 97c0,24.13 15.85,48.81 52.94,48.81 1.1,0 2.53,0 3.62,0zm-1.74 -107.59c13.51,0 24.53,11.09 24.53,24.68 0,13.59 -11.02,24.68 -24.53,24.68 -13.5,0 -24.52,-11.09 -24.52,-24.68 0,-13.59 11.02,-24.68 24.52,-24.68z"/>
  </g>
 </g>
</svg>
